<?xml version="1.0" encoding="utf-8"?>
<svg viewBox="117.94351959228516 181.4516143798828 615.9000244140625 116" xmlns="http://www.w3.org/2000/svg">
  <defs>
    <linearGradient id="gradient-0" gradientUnits="userSpaceOnUse" x1="625.248" y1="-0.404" x2="625.248" y2="440.334">
      <stop offset="0" style="stop-color: rgba(22, 52, 89, 1)"/>
      <stop offset="1" style="stop-color: rgba(2, 4, 7, 1)"/>
    </linearGradient>
    <linearGradient id="gradient-1" gradientUnits="userSpaceOnUse" x1="726.998" y1="-0.404" x2="726.998" y2="395.444">
      <stop offset="0" style="stop-color: rgba(22, 52, 89, 1)"/>
      <stop offset="1" style="stop-color: rgba(2, 4, 7, 1)"/>
    </linearGradient>
    <linearGradient id="gradient-37" gradientUnits="userSpaceOnUse" x1="1024.473" y1="4.559" x2="1024.473" y2="278.715">
      <stop offset="0" style="stop-color: rgba(255, 255, 255, 1)"/>
      <stop offset="1" style="stop-color: rgba(204, 204, 204, 1)"/>
    </linearGradient>
    <linearGradient id="gradient-38" gradientUnits="userSpaceOnUse" x1="1252.004" y1="6.777" x2="1252.004" y2="276.496">
      <stop offset="0" style="stop-color: rgba(255, 255, 255, 1)"/>
      <stop offset="1" style="stop-color: rgba(204, 204, 204, 1)"/>
    </linearGradient>
    <linearGradient id="gradient-39" gradientUnits="userSpaceOnUse" x1="1487.553" y1="6.777" x2="1487.553" y2="276.496">
      <stop offset="0" style="stop-color: rgba(255, 255, 255, 1)"/>
      <stop offset="1" style="stop-color: rgba(204, 204, 204, 1)"/>
    </linearGradient>
    <linearGradient id="gradient-40" gradientUnits="userSpaceOnUse" x1="1740.523" y1="6.777" x2="1740.523" y2="276.496">
      <stop offset="0" style="stop-color: rgba(255, 255, 255, 1)"/>
      <stop offset="1" style="stop-color: rgba(204, 204, 204, 1)"/>
    </linearGradient>
    <linearGradient id="gradient-41" gradientUnits="userSpaceOnUse" x1="1996.383" y1="6.777" x2="1996.383" y2="276.496">
      <stop offset="0" style="stop-color: rgba(255, 255, 255, 1)"/>
      <stop offset="1" style="stop-color: rgba(204, 204, 204, 1)"/>
    </linearGradient>
    <linearGradient id="gradient-42" gradientUnits="userSpaceOnUse" x1="2509.818" y1="9.529" x2="2509.818" y2="279.248">
      <stop offset="0" style="stop-color: rgba(255, 255, 255, 1)"/>
      <stop offset="1" style="stop-color: rgba(204, 204, 204, 1)"/>
    </linearGradient>
    <linearGradient id="gradient-43" gradientUnits="userSpaceOnUse" x1="2767.223" y1="7.311" x2="2767.223" y2="281.467">
      <stop offset="0" style="stop-color: rgba(255, 255, 255, 1)"/>
      <stop offset="1" style="stop-color: rgba(204, 204, 204, 1)"/>
    </linearGradient>
    <linearGradient id="gradient-44" gradientUnits="userSpaceOnUse" x1="2990.233" y1="9.529" x2="2990.233" y2="279.248">
      <stop offset="0" style="stop-color: rgba(255, 255, 255, 1)"/>
      <stop offset="1" style="stop-color: rgba(204, 204, 204, 1)"/>
    </linearGradient>
    <linearGradient id="gradient-45" gradientUnits="userSpaceOnUse" x1="3217.863" y1="9.529" x2="3217.863" y2="279.248">
      <stop offset="0" style="stop-color: rgba(255, 255, 255, 1)"/>
      <stop offset="1" style="stop-color: rgba(204, 204, 204, 1)"/>
    </linearGradient>
    <linearGradient id="gradient-46" gradientUnits="userSpaceOnUse" x1="3447.508" y1="9.529" x2="3447.508" y2="279.248">
      <stop offset="0" style="stop-color: rgba(255, 255, 255, 1)"/>
      <stop offset="1" style="stop-color: rgba(204, 204, 204, 1)"/>
    </linearGradient>
  </defs>
  <g transform="matrix(1.968131, 0, 0, -2.036681, 31.154325, 288.653229)" id="g10" style="">
    <g transform="scale(0.1)" id="g12">
      <path id="path14" style="fill: rgb(198, 149, 26); fill-opacity: 1; fill-rule: nonzero; stroke: none;" d="M 631.778 457.593 L 631.778 435.33 C 631.763 428.811 627.503 422.308 622.28 420.828 L 586.494 410.8 C 585.835 410.628 585.176 410.523 584.547 410.523 L 584.543 410.523 C 580.662 410.523 578.049 413.907 578.037 418.928 L 578.037 441.186 C 578.052 447.708 582.32 454.224 587.547 455.708 L 623.332 465.732 C 623.991 465.908 624.646 466.009 625.272 466.009 C 629.153 466.009 631.766 462.629 631.778 457.593 Z M 628.02 488.026 C 626.143 488.026 624.214 487.766 622.28 487.225 L 586.489 477.202 C 572.311 473.212 560.777 455.516 560.777 437.735 L 560.777 415.456 C 560.777 399.838 569.614 388.506 581.792 388.506 C 583.673 388.506 585.607 388.768 587.547 389.308 L 623.337 399.331 C 637.51 403.308 649.047 421 649.057 438.798 L 649.057 461.076 C 649.047 476.696 640.201 488.026 628.02 488.026"/>
      <path id="path16" style="fill-opacity: 1; fill-rule: nonzero; stroke: none; fill: url(#gradient-0);" d="M 651.534 333.838 C 636.53 330.577 621.525 327.369 606.519 324.093 C 606.519 343.027 606.519 361.92 606.519 380.87 C 621.525 384.741 636.53 388.54 651.534 392.411 C 651.534 372.834 651.534 353.328 651.534 333.838 Z M 651.534 246.038 C 636.53 243.704 621.525 241.366 606.519 239.012 C 606.519 257.929 606.519 276.852 606.519 295.765 C 621.525 298.692 636.53 301.656 651.534 304.55 C 651.534 285.027 651.534 265.529 651.534 246.038 Z M 651.534 158.267 C 636.53 156.821 621.525 155.373 606.519 153.959 C 606.519 172.873 606.519 191.754 606.519 210.632 C 621.525 212.675 636.53 214.764 651.534 216.788 C 651.534 197.263 651.534 177.791 651.534 158.267 Z M 593.429 321.252 C 579.559 318.288 565.708 315.288 551.858 312.325 C 551.858 330.474 551.858 348.673 551.858 366.908 C 565.708 370.447 579.559 374.003 593.429 377.523 C 593.429 358.765 593.429 340.01 593.429 321.252 Z M 593.429 236.974 C 579.559 234.83 565.708 232.634 551.858 230.489 C 551.858 248.671 551.858 266.854 551.858 285.027 C 565.708 287.762 579.559 290.466 593.429 293.166 C 593.429 274.428 593.429 255.731 593.429 236.974 Z M 593.429 152.688 C 579.559 151.364 565.708 150.019 551.858 148.678 C 551.858 166.86 551.858 185.059 551.858 203.241 C 565.708 205.125 579.559 207.009 593.429 208.857 C 593.429 190.151 593.429 171.411 593.429 152.688 Z M 539.729 309.693 C 526.956 306.94 514.111 304.167 501.277 301.378 C 501.277 318.897 501.277 336.4 501.277 353.99 C 514.111 357.248 526.956 360.51 539.729 363.805 C 539.729 345.725 539.729 327.702 539.729 309.693 Z M 539.729 228.624 C 526.956 226.602 514.111 224.599 501.277 222.609 C 501.277 240.095 501.277 257.632 501.277 275.143 C 514.111 277.653 526.956 280.146 539.729 282.657 C 539.729 264.658 539.729 246.631 539.729 228.624 Z M 539.729 147.546 C 526.916 146.273 514.111 145.07 501.277 143.834 C 501.277 161.334 501.277 178.837 501.277 196.357 C 514.111 198.099 526.956 199.86 539.729 201.602 C 539.729 183.558 539.729 165.553 539.729 147.546 Z M 674.185 414.585 C 678.14 415.579 777.788 389.549 777.788 389.549 L 777.788 412.056 L 670.531 440.334 L 567.617 411.708 C 533.788 402.295 502.191 393.526 472.708 385.334 C 472.708 378.082 472.708 370.846 472.708 363.666 C 475.3 364.308 477.911 364.97 480.56 365.635 C 480.56 303.156 480.441 -0.404 480.441 -0.404 L 551.821 -0.404 L 551.821 17.272 L 551.858 17.272 C 551.858 47.589 551.858 107.94 551.858 121.43 C 565.708 122.477 579.559 123.523 593.429 124.57 C 593.429 102.274 593.429 102.238 593.429 -0.404 L 674.091 0.05 L 674.185 414.585"/>
      <path id="path18" style="fill-opacity: 1; fill-rule: nonzero; stroke: none; fill: url(#gradient-1);" d="M 686.123 395.444 L 767.873 376.967 L 767.873 -0.404 L 686.14 -0.404 L 686.123 395.444"/>
      <path id="path20" style="fill-opacity: 1; fill-rule: nonzero; stroke: none; fill: rgb(255, 255, 255);" d="M 1344.436 437.557 L 1351.179 437.557 L 1351.179 408.166 L 1388.668 408.166 L 1388.668 437.557 L 1395.532 437.557 L 1395.532 369.25 L 1388.668 369.25 L 1388.668 402.631 L 1351.179 402.631 L 1351.179 369.25 L 1344.436 369.25 L 1344.436 437.557"/>
      <path id="path22" style="fill-opacity: 1; fill-rule: nonzero; stroke: none; fill: rgb(255, 255, 255);" d="M 1467.203 403.565 C 1467.203 384.906 1476.537 373.76 1492.008 373.76 C 1507.171 373.76 1516.58 385.012 1516.58 403.152 C 1516.58 421.785 1507.27 433.055 1491.887 433.055 C 1476.625 433.055 1467.203 421.785 1467.203 403.565 Z M 1516.383 427.218 C 1521.077 420.654 1523.446 412.359 1523.446 402.743 C 1523.446 381.53 1511.149 367.907 1492.008 367.907 C 1472.438 367.907 1460.36 381.427 1460.36 403.246 C 1460.36 412.269 1462.917 420.861 1467.423 427.218 C 1473.143 435.203 1480.945 438.896 1491.887 438.896 C 1503.061 438.896 1510.752 435.203 1516.383 427.218"/>
      <path id="path24" style="fill-opacity: 1; fill-rule: nonzero; stroke: none; fill: rgb(255, 255, 255);" d="M 1600.252 431.725 L 1578.025 431.725 L 1578.025 437.557 L 1629.133 437.557 L 1629.133 431.725 L 1607.139 431.725 L 1607.139 369.25 L 1600.252 369.25 L 1600.252 431.725"/>
      <path id="path26" style="fill-opacity: 1; fill-rule: nonzero; stroke: none; fill: rgb(255, 255, 255);" d="M 1690.259 437.557 L 1736.132 437.557 L 1736.132 431.725 L 1697.124 431.725 L 1697.124 407.051 L 1732.97 407.051 L 1732.97 401.512 L 1697.124 401.512 L 1697.124 374.988 L 1737.069 374.988 L 1737.069 369.25 L 1690.259 369.25 L 1690.259 437.557"/>
      <path id="path28" style="fill-opacity: 1; fill-rule: nonzero; stroke: none; fill: rgb(255, 255, 255);" d="M 1800.771 437.557 L 1807.627 437.557 L 1807.627 374.988 L 1843.164 374.988 L 1843.164 369.25 L 1800.771 369.25 L 1800.771 437.557"/>
      <path id="path30" style="fill-opacity: 1; fill-rule: nonzero; stroke: none; fill: rgb(255, 255, 255);" d="M 2017.92 396.187 L 2004.719 431.104 L 1991.706 396.187 Z M 2001.238 437.557 L 2008.39 437.557 L 2035.134 369.25 L 2027.982 369.25 L 2019.795 390.845 L 1989.667 390.845 L 1981.567 369.25 L 1974.415 369.25 L 2001.238 437.557"/>
      <path id="path32" style="fill-opacity: 1; fill-rule: nonzero; stroke: none; fill: rgb(255, 255, 255);" d="M 2118.088 404.99 C 2124.446 404.99 2127.091 405.188 2129.46 406.023 C 2134.264 407.65 2136.93 412.053 2136.93 418.502 C 2136.93 424.756 2134.683 428.751 2130.187 430.498 C 2127.928 431.312 2125.273 431.617 2120.654 431.617 L 2102.727 431.617 L 2102.727 404.99 Z M 2095.949 437.557 L 2120.445 437.557 C 2128.952 437.557 2131.807 437.045 2135.388 435.096 C 2140.744 432.143 2143.795 426.099 2143.795 418.402 C 2143.795 409.699 2139.906 403.359 2132.831 400.685 C 2129.558 399.455 2126.175 399.055 2118.208 399.055 L 2102.727 399.055 L 2102.727 369.25 L 2095.949 369.25 L 2095.949 437.557"/>
      <path id="path34" style="fill-opacity: 1; fill-rule: nonzero; stroke: none; fill: rgb(255, 255, 255);" d="M 2237.802 396.187 L 2224.59 431.104 L 2211.587 396.187 Z M 2221.109 437.557 L 2228.271 437.557 L 2255.015 369.25 L 2247.831 369.25 L 2239.632 390.845 L 2209.538 390.845 L 2201.438 369.25 L 2194.275 369.25 L 2221.109 437.557"/>
      <path id="path36" style="fill-opacity: 1; fill-rule: nonzero; stroke: none; fill: rgb(255, 255, 255);" d="M 2340.923 405.61 C 2346.057 405.61 2349.12 405.924 2351.468 406.626 C 2356.481 408.166 2359.479 412.773 2359.479 419.22 C 2359.479 425.569 2356.481 429.788 2350.96 431.104 C 2349.022 431.514 2346.466 431.725 2341.131 431.725 L 2322.596 431.725 L 2322.596 405.61 Z M 2315.821 437.557 L 2343.479 437.557 C 2350.751 437.557 2354.939 436.851 2358.145 434.992 C 2363.368 432.143 2366.311 426.306 2366.311 419.134 C 2366.311 411.235 2362.951 406.023 2355.766 402.833 C 2362.719 398.942 2363.457 397.1 2364.174 383.183 C 2364.89 372.426 2364.978 372.22 2368.062 369.25 L 2359.864 369.25 C 2358.74 372.53 2358.532 373.442 2358.145 380.196 C 2357.408 391.371 2356.185 395.873 2353.099 398.12 C 2350.96 399.773 2348.912 400.083 2341.749 400.083 L 2322.596 400.083 L 2322.596 369.25 L 2315.821 369.25 L 2315.821 437.557"/>
      <path id="path38" style="fill-opacity: 1; fill-rule: nonzero; stroke: none; fill: rgb(255, 255, 255);" d="M 2447.359 431.725 L 2425.088 431.725 L 2425.088 437.557 L 2476.23 437.557 L 2476.23 431.725 L 2454.192 431.725 L 2454.192 369.25 L 2447.359 369.25 L 2447.359 431.725"/>
      <path id="path40" style="fill-opacity: 1; fill-rule: nonzero; stroke: none; fill: rgb(255, 255, 255);" d="M 2537.333 437.557 L 2545.642 437.557 L 2569.399 377.239 L 2592.859 437.557 L 2601.059 437.557 L 2601.059 369.25 L 2594.91 369.25 L 2594.91 426.697 L 2572.672 369.25 L 2566.226 369.25 L 2543.293 426.697 L 2543.293 369.25 L 2537.333 369.25 L 2537.333 437.557"/>
      <path id="path42" style="fill-opacity: 1; fill-rule: nonzero; stroke: none; fill: rgb(255, 255, 255);" d="M 2668.751 437.557 L 2714.656 437.557 L 2714.656 431.725 L 2675.605 431.725 L 2675.605 407.051 L 2711.451 407.051 L 2711.451 401.512 L 2675.605 401.512 L 2675.605 374.988 L 2715.572 374.988 L 2715.572 369.25 L 2668.751 369.25 L 2668.751 437.557"/>
      <path id="path44" style="fill-opacity: 1; fill-rule: nonzero; stroke: none; fill: rgb(255, 255, 255);" d="M 2779.254 437.557 L 2785.996 437.557 L 2824.818 379.175 L 2824.818 437.557 L 2830.846 437.557 L 2830.846 369.25 L 2824.102 369.25 L 2785.292 427.726 L 2785.292 369.25 L 2779.254 369.25 L 2779.254 437.557"/>
      <path id="path46" style="fill-opacity: 1; fill-rule: nonzero; stroke: none; fill: rgb(255, 255, 255);" d="M 2914.328 431.725 L 2892.091 431.725 L 2892.091 437.557 L 2943.223 437.557 L 2943.223 431.725 L 2921.195 431.725 L 2921.195 369.25 L 2914.328 369.25 L 2914.328 431.725"/>
      <path id="path48" style="fill-opacity: 1; fill-rule: nonzero; stroke: none; fill: rgb(255, 255, 255);" d="M 3006.076 391.874 C 3006.903 379.593 3013.239 373.76 3025.647 373.76 C 3036.811 373.76 3043.575 379.073 3043.575 387.893 C 3043.575 391.99 3042.034 394.956 3038.859 396.803 C 3035.686 398.753 3031.797 399.877 3022.076 401.809 C 3013.35 403.655 3008.953 405.292 3006.076 407.857 C 3003.014 410.628 3001.151 415.131 3001.151 420.055 C 3001.151 431.617 3010.176 438.896 3024.722 438.896 C 3039.786 438.896 3047.654 432.336 3048.987 418.712 L 3042.154 418.712 C 3042.034 423.219 3041.327 425.38 3039.156 427.726 C 3035.984 431.312 3031.378 433.055 3024.722 433.055 C 3014.363 433.055 3007.94 428.135 3007.94 420.155 C 3007.94 413.195 3011.905 410.108 3024.545 407.749 C 3035.092 405.807 3039.156 404.581 3043.046 402.235 C 3047.588 399.455 3050.231 394.435 3050.231 388.702 C 3050.231 376.305 3040.172 367.907 3025.56 367.907 C 3015.609 367.907 3007.83 371.299 3003.521 377.432 C 3000.667 381.53 2999.542 385.426 2999.422 391.874 L 3006.076 391.874"/>
      <path id="path50" style="fill-opacity: 1; fill-rule: nonzero; stroke: none; fill: url(#gradient-37);" d="M 954.729 72.117 C 975.53 54.441 1000.276 45.488 1028.975 45.234 C 1062.924 45.73 1080.143 58.262 1080.623 82.82 C 1080.869 102.938 1069.518 115.039 1046.565 119.109 C 1036.053 120.594 1024.522 122.266 1011.975 124.109 C 989.51 127.938 972.424 136.512 960.721 149.852 C 948.651 163.555 942.616 180.215 942.616 199.844 C 942.616 223.418 950.194 242.43 965.354 256.871 C 980.033 271.184 1000.858 278.465 1027.83 278.715 C 1060.295 277.977 1088.518 268.691 1112.514 250.859 L 1090.463 217.273 C 1070.858 230.613 1049.28 237.539 1025.737 238.035 C 1013.545 238.035 1003.389 234.891 995.256 228.594 C 986.772 222.051 982.405 212.293 982.17 199.336 C 982.17 191.563 985.096 184.531 990.951 178.23 C 996.811 171.816 1006.186 167.371 1019.092 164.902 C 1026.26 163.66 1036.053 162.246 1048.487 160.645 C 1072.979 157.188 1091.076 148.113 1102.787 133.426 C 1114.377 118.984 1120.174 102.195 1120.174 83.066 C 1118.862 31.465 1088.307 5.293 1028.506 4.559 C 989.826 4.559 956.584 16.824 928.772 41.375 L 954.729 72.117"/>
      <path id="path52" style="fill-opacity: 1; fill-rule: nonzero; stroke: none; fill: url(#gradient-38);" d="M 1232.201 240.254 L 1160.6 240.254 L 1160.6 276.496 L 1343.408 276.496 L 1343.408 240.254 L 1271.756 240.254 L 1271.756 6.777 L 1232.201 6.777 L 1232.201 240.254"/>
      <path id="path54" style="fill-opacity: 1; fill-rule: nonzero; stroke: none; fill: url(#gradient-39);" d="M 1539.373 124.637 L 1435.733 124.637 L 1435.733 6.777 L 1396.183 6.777 L 1396.183 276.496 L 1435.733 276.496 L 1435.733 160.859 L 1539.373 160.859 L 1539.373 276.496 L 1578.923 276.496 L 1578.923 6.777 L 1539.373 6.777 L 1539.373 124.637"/>
      <path id="path56" style="fill-opacity: 1; fill-rule: nonzero; stroke: none; fill: url(#gradient-41);" d="M 1884.853 276.496 L 1922.133 276.496 L 1997.033 100.684 L 2070.513 276.496 L 2107.913 276.496 L 2107.913 6.777 L 2068.363 6.777 L 2068.363 174.988 L 2067.463 174.988 L 2012.793 45.449 L 1979.803 45.449 L 1925.123 174.988 L 1924.403 174.988 L 1924.403 6.777 L 1884.853 6.777 L 1884.853 276.496"/>
      <path id="path58" style="fill-opacity: 1; fill-rule: nonzero; stroke: none; fill: url(#gradient-40);" d="M 1657.073 276.496 L 1696.643 276.496 L 1696.643 45.234 L 1823.973 45.234 L 1823.973 6.777 L 1657.073 6.777 L 1657.073 276.496"/>
      <path id="path60" style="fill-opacity: 1; fill-rule: nonzero; stroke: none; fill: url(#gradient-42);" d="M 2561.628 127.389 L 2458.008 127.389 L 2458.008 9.529 L 2418.448 9.529 L 2418.448 279.248 L 2458.008 279.248 L 2458.008 163.611 L 2561.628 163.611 L 2561.628 279.248 L 2601.188 279.248 L 2601.188 9.529 L 2561.628 9.529 L 2561.628 127.389"/>
      <path id="path62" style="fill-opacity: 1; fill-rule: nonzero; stroke: none; fill: url(#gradient-43);" d="M 2713.558 144.393 C 2713.558 117.818 2714.508 99.83 2716.428 90.447 C 2718.108 81.053 2721.518 73.443 2726.658 67.643 C 2730.848 62.076 2736.348 57.565 2743.178 54.108 C 2749.878 50.025 2757.888 47.986 2767.228 47.986 C 2776.678 47.986 2784.878 50.025 2791.818 54.108 C 2798.388 57.565 2803.658 62.076 2807.608 67.643 C 2812.758 73.455 2816.278 81.053 2818.198 90.447 C 2819.988 99.83 2820.888 117.818 2820.888 144.393 C 2820.888 170.955 2819.988 189.061 2818.198 198.705 C 2816.278 207.85 2812.758 215.33 2807.608 221.139 C 2803.658 226.697 2798.388 231.334 2791.818 235.045 C 2784.878 238.631 2776.678 240.533 2767.228 240.787 C 2757.888 240.533 2749.878 238.631 2743.178 235.045 C 2736.348 231.334 2730.848 226.697 2726.658 221.139 C 2721.518 215.33 2718.108 207.85 2716.428 198.705 C 2714.508 189.061 2713.558 170.955 2713.558 144.393 Z M 2674.008 144.393 C 2674.008 175.779 2674.898 196.783 2676.688 207.42 C 2678.608 218.045 2681.528 226.639 2685.468 233.182 C 2691.798 245.592 2701.948 256.647 2715.918 266.365 C 2729.648 276.182 2746.778 281.217 2767.318 281.467 C 2788.098 281.217 2805.398 276.162 2819.258 266.307 C 2832.988 256.561 2842.898 245.455 2848.988 233.006 C 2853.398 226.463 2856.448 217.889 2858.118 207.283 C 2859.668 196.678 2860.438 175.709 2860.438 144.393 C 2860.438 113.553 2859.668 92.713 2858.118 81.861 C 2856.448 71.002 2853.398 62.311 2848.988 55.779 C 2842.888 43.318 2832.978 32.342 2819.248 22.85 C 2805.398 12.975 2788.088 7.799 2767.318 7.311 C 2746.778 7.799 2729.648 12.975 2715.918 22.85 C 2701.948 32.342 2691.798 43.318 2685.468 55.779 C 2683.558 59.85 2681.828 63.729 2680.278 67.428 C 2678.838 71.256 2677.648 76.061 2676.688 81.861 C 2674.898 92.713 2674.008 113.553 2674.008 144.393"/>
      <path id="path64" style="fill-opacity: 1; fill-rule: nonzero; stroke: none; fill: url(#gradient-44);" d="M 2970.438 243.006 L 2898.828 243.006 L 2898.828 279.248 L 3081.638 279.248 L 3081.638 243.006 L 3009.988 243.006 L 3009.988 9.529 L 2970.438 9.529 L 2970.438 243.006"/>
      <path id="path66" style="fill-opacity: 1; fill-rule: nonzero; stroke: none; fill: url(#gradient-45);" d="M 3134.418 279.248 L 3301.308 279.248 L 3301.308 240.787 L 3173.978 240.787 L 3173.978 163.611 L 3282.678 163.611 L 3282.678 127.389 L 3173.978 127.389 L 3173.978 47.986 L 3301.308 47.986 L 3301.308 9.529 L 3134.418 9.529 L 3134.418 279.248"/>
      <path id="path68" style="fill-opacity: 1; fill-rule: nonzero; stroke: none; fill: url(#gradient-46);" d="M 3364.058 279.248 L 3403.628 279.248 L 3403.628 47.986 L 3530.958 47.986 L 3530.958 9.529 L 3364.058 9.529 L 3364.058 279.248"/>
      <path id="path70" style="fill:#163459;fill-opacity:1;fill-rule:nonzero;stroke:none" d="M 3219.675 1030.194 L 3257.005 1030.194 L 3257.005 991.737 L 3219.675 991.737 L 3219.675 1030.194"/>
      <path id="path72" style="fill:#163459;fill-opacity:1;fill-rule:nonzero;stroke:none" d="M 3334.905 1057.077 C 3355.695 1039.401 3380.455 1030.448 3409.145 1030.194 C 3443.095 1030.69 3460.315 1043.221 3460.795 1067.78 C 3461.035 1087.898 3449.695 1099.999 3426.745 1104.069 C 3416.225 1105.554 3404.695 1107.226 3392.155 1109.069 C 3369.685 1112.898 3352.605 1121.472 3340.895 1134.812 C 3328.825 1148.515 3322.785 1165.175 3322.785 1184.804 C 3322.785 1208.378 3330.365 1227.39 3345.525 1241.831 C 3360.195 1256.144 3381.025 1263.425 3408.005 1263.675 C 3440.465 1262.937 3468.695 1253.651 3492.675 1235.819 L 3470.625 1202.233 C 3451.025 1215.573 3429.455 1222.499 3405.915 1222.995 C 3393.715 1222.995 3383.555 1219.851 3375.435 1213.554 C 3366.945 1207.011 3362.585 1197.253 3362.335 1184.296 C 3362.335 1176.523 3365.265 1169.491 3371.125 1163.19 C 3376.975 1156.776 3386.365 1152.331 3399.265 1149.862 C 3406.425 1148.62 3416.225 1147.206 3428.655 1145.605 C 3453.145 1142.148 3471.255 1133.073 3482.965 1118.386 C 3494.555 1103.944 3500.345 1087.155 3500.345 1068.026 C 3499.035 1016.424 3468.475 990.253 3408.675 989.518 C 3369.995 989.518 3336.755 1001.784 3308.935 1026.335 L 3334.905 1057.077"/>
      <path id="path74" style="fill:#163459;fill-opacity:1;fill-rule:nonzero;stroke:none" d="M 3567.975 1261.456 L 3734.865 1261.456 L 3734.865 1222.995 L 3607.535 1222.995 L 3607.535 1145.819 L 3716.235 1145.819 L 3716.235 1109.597 L 3607.535 1109.597 L 3607.535 1030.194 L 3734.865 1030.194 L 3734.865 991.737 L 3567.975 991.737 L 3567.975 1261.456"/>
      <line style="stroke: rgb(0, 0, 0);" x1="891.138" y1="-180.375" x2="2504.541" y2="-179.373"/>
    </g>
  </g>
</svg>