<svg id="svg" version="1.1" width="2400" height="469" xmlns="http://www.w3.org/2000/svg" xmlns:xlink="http://www.w3.org/1999/xlink" style="display: block;"><g id="svgg"><path id="path0" d="M133.292 30.790 C 133.773 30.823,134.560 30.823,135.042 30.790 C 135.523 30.756,135.129 30.728,134.167 30.728 C 133.204 30.728,132.810 30.756,133.292 30.790 " stroke="none" fill="#000000" fill-rule="evenodd"></path><path id="path1" d="" stroke="none" fill="#ff0000" fill-rule="evenodd"></path><path id="path2" d="M22.304 0.223 C 21.784 0.329,21.303 0.473,21.235 0.542 C 21.167 0.610,20.899 0.667,20.639 0.667 C 20.379 0.667,20.167 0.736,20.167 0.821 C 20.167 0.906,19.753 1.028,19.248 1.091 C 18.742 1.154,18.288 1.272,18.238 1.353 C 18.188 1.434,17.964 1.500,17.740 1.500 C 17.516 1.500,17.333 1.567,17.333 1.649 C 17.333 1.730,17.151 1.843,16.928 1.899 C 16.705 1.955,16.476 2.147,16.419 2.325 C 16.363 2.504,16.170 2.696,15.991 2.753 C 15.813 2.809,15.667 2.912,15.667 2.981 C 15.667 3.050,15.442 3.359,15.167 3.667 C 14.892 3.975,14.667 4.357,14.667 4.516 C 14.667 4.675,14.584 4.833,14.484 4.867 C 14.383 4.900,14.261 5.281,14.212 5.714 C 14.163 6.146,14.058 6.500,13.978 6.500 C 13.899 6.500,13.833 7.821,13.833 9.435 L 13.833 12.370 14.375 12.289 C 17.031 11.891,17.161 11.748,17.164 9.219 C 17.167 7.072,17.260 6.620,17.809 6.083 C 18.459 5.449,18.654 5.333,19.076 5.333 C 19.309 5.333,19.500 5.262,19.500 5.175 C 19.500 5.088,19.950 4.966,20.500 4.903 C 21.050 4.841,21.500 4.725,21.500 4.645 C 21.500 4.565,21.719 4.500,21.986 4.500 C 22.253 4.500,22.499 4.419,22.532 4.320 C 22.666 3.918,24.911 4.045,24.970 4.458 C 24.999 4.665,25.093 4.833,25.178 4.833 C 25.264 4.833,25.333 5.615,25.333 6.583 C 25.333 7.639,25.267 8.333,25.167 8.333 C 24.900 8.333,24.975 9.121,25.252 9.228 C 25.391 9.281,25.672 9.259,25.877 9.179 C 26.082 9.099,26.723 8.900,27.302 8.737 C 27.901 8.569,28.420 8.315,28.510 8.148 C 28.724 7.748,28.715 3.500,28.500 3.500 C 28.408 3.500,28.333 3.244,28.333 2.932 C 28.333 0.566,25.918 -0.519,22.304 0.223 " stroke="none" fill="#cb9b2b" fill-rule="evenodd"></path><path id="path3" d="" stroke="none" fill="#008080" fill-rule="evenodd"></path><path id="path4" d="M30.875 7.452 C 30.577 7.490,30.333 7.583,30.333 7.658 C 30.333 7.734,29.984 7.848,29.558 7.912 C 29.131 7.976,28.587 8.170,28.349 8.342 C 27.764 8.768,26.076 9.231,25.208 9.204 C 24.819 9.192,24.500 9.246,24.500 9.325 C 24.500 9.403,24.050 9.520,23.500 9.583 C 22.950 9.647,22.458 9.767,22.407 9.850 C 22.355 9.932,22.131 10.000,21.907 10.000 C 21.683 10.000,21.500 10.066,21.500 10.147 C 21.500 10.229,21.089 10.346,20.586 10.409 C 20.083 10.472,19.635 10.583,19.590 10.656 C 19.544 10.730,19.134 10.839,18.677 10.900 C 18.221 10.960,17.802 11.082,17.747 11.171 C 17.692 11.261,17.509 11.333,17.341 11.333 C 17.173 11.333,16.999 11.429,16.954 11.545 C 16.852 11.812,14.485 12.412,14.017 12.289 C 13.824 12.239,13.628 12.261,13.581 12.337 C 13.534 12.414,13.083 12.528,12.581 12.591 C 12.078 12.654,11.667 12.771,11.667 12.853 C 11.667 12.934,11.446 13.000,11.177 13.000 C 10.907 13.000,10.644 13.068,10.593 13.151 C 10.542 13.234,10.106 13.356,9.625 13.421 C 9.144 13.487,8.712 13.588,8.667 13.646 C 8.621 13.705,8.021 13.888,7.333 14.054 C 6.646 14.219,5.933 14.420,5.750 14.501 C 5.442 14.636,4.396 14.897,3.292 15.114 C 3.040 15.164,2.833 15.261,2.833 15.330 C 2.833 15.398,2.502 15.500,2.097 15.556 C 1.692 15.611,1.054 15.752,0.680 15.869 L 0.000 16.081 0.000 18.120 L 0.000 20.158 0.500 20.058 L 1.000 19.958 1.000 49.063 L 1.000 78.167 7.000 78.167 L 13.000 78.167 13.000 68.524 L 13.000 58.881 14.024 58.774 C 14.588 58.715,15.708 58.667,16.515 58.667 C 17.321 58.667,18.027 58.592,18.083 58.500 C 18.140 58.408,18.369 58.333,18.593 58.333 L 19.000 58.333 19.000 68.252 L 19.000 78.170 25.708 78.127 L 32.417 78.083 32.459 45.107 L 32.501 12.130 33.042 12.228 C 33.340 12.281,34.127 12.416,34.792 12.527 C 35.456 12.638,36.000 12.789,36.000 12.864 C 36.000 12.939,36.244 13.003,36.542 13.007 C 36.840 13.011,37.383 13.123,37.750 13.255 C 38.117 13.387,38.618 13.496,38.865 13.497 C 39.112 13.499,39.355 13.568,39.407 13.650 C 39.458 13.733,39.950 13.853,40.500 13.917 C 41.050 13.980,41.500 14.100,41.500 14.183 C 41.500 14.266,41.721 14.333,41.990 14.333 C 42.260 14.333,42.523 14.402,42.575 14.487 C 42.627 14.571,43.157 14.693,43.752 14.756 C 44.347 14.820,44.833 14.938,44.833 15.019 C 44.833 15.100,45.054 15.167,45.323 15.167 C 45.593 15.167,45.855 15.234,45.907 15.317 C 45.958 15.400,46.450 15.519,47.000 15.583 C 47.550 15.647,48.000 15.767,48.000 15.850 C 48.000 15.932,48.262 16.000,48.583 16.000 L 49.167 16.000 49.167 13.996 C 49.167 11.795,49.097 11.667,47.906 11.667 C 47.683 11.667,47.500 11.592,47.500 11.500 C 47.500 11.408,47.279 11.333,47.010 11.333 C 46.740 11.333,46.478 11.265,46.426 11.182 C 46.375 11.099,45.939 10.978,45.458 10.914 C 44.977 10.849,44.508 10.738,44.417 10.667 C 44.325 10.596,43.856 10.484,43.375 10.420 C 42.894 10.355,42.500 10.234,42.500 10.151 C 42.500 10.068,42.242 10.000,41.927 10.000 C 41.611 10.000,41.309 9.928,41.255 9.841 C 41.201 9.754,40.709 9.631,40.162 9.570 C 39.614 9.508,39.167 9.392,39.167 9.312 C 39.167 9.232,38.957 9.167,38.700 9.167 C 38.443 9.167,38.156 9.090,38.062 8.996 C 37.968 8.901,37.503 8.779,37.029 8.722 C 36.555 8.666,36.167 8.564,36.167 8.495 C 36.167 8.426,35.923 8.328,35.625 8.277 C 34.308 8.052,33.077 7.762,33.000 7.659 C 32.883 7.501,31.526 7.369,30.875 7.452 M33.833 46.394 L 33.833 78.167 40.667 78.167 L 47.501 78.167 47.459 47.792 L 47.417 17.417 46.208 17.263 C 45.544 17.179,45.000 17.048,45.000 16.972 C 45.000 16.896,44.737 16.833,44.417 16.833 C 44.096 16.833,43.833 16.766,43.833 16.684 C 43.833 16.601,43.308 16.481,42.666 16.417 C 42.024 16.352,41.457 16.232,41.406 16.150 C 41.355 16.067,41.098 16.000,40.833 16.000 C 40.569 16.000,40.311 15.933,40.260 15.850 C 40.210 15.768,39.643 15.648,39.001 15.583 C 38.359 15.519,37.833 15.399,37.833 15.316 C 37.833 15.234,37.586 15.167,37.283 15.167 C 36.981 15.167,36.662 15.096,36.575 15.010 C 36.488 14.924,35.835 14.801,35.125 14.737 L 33.833 14.621 33.833 46.394 M28.333 20.067 L 28.333 24.467 27.333 24.583 C 26.783 24.647,26.291 24.767,26.240 24.850 C 26.189 24.932,25.851 25.000,25.490 25.000 C 25.129 25.000,24.833 25.065,24.833 25.145 C 24.833 25.225,24.310 25.342,23.670 25.405 C 23.031 25.468,22.464 25.590,22.411 25.676 C 22.357 25.763,22.168 25.833,21.990 25.833 C 21.678 25.833,21.667 25.679,21.667 21.583 C 21.667 17.444,21.675 17.333,22.000 17.333 C 22.183 17.333,22.333 17.266,22.333 17.183 C 22.333 17.100,22.802 16.979,23.375 16.913 C 23.948 16.847,24.454 16.741,24.500 16.678 C 24.576 16.572,25.793 16.284,27.125 16.056 C 27.423 16.005,27.667 15.897,27.667 15.815 C 27.667 15.733,27.817 15.667,28.000 15.667 C 28.325 15.667,28.333 15.778,28.333 20.067 M19.000 22.250 C 19.000 25.769,18.965 26.333,18.750 26.333 C 18.612 26.333,18.500 26.408,18.500 26.500 C 18.500 26.592,18.200 26.667,17.833 26.667 C 17.467 26.667,17.167 26.734,17.167 26.816 C 17.167 26.899,16.623 27.020,15.958 27.086 C 15.294 27.153,14.713 27.262,14.667 27.329 C 14.621 27.397,14.227 27.491,13.792 27.539 L 13.000 27.626 13.000 23.579 L 13.000 19.531 13.833 19.417 C 14.291 19.354,14.708 19.234,14.760 19.151 C 14.811 19.068,15.111 19.000,15.427 19.000 C 15.742 19.000,16.000 18.934,16.000 18.853 C 16.000 18.771,16.394 18.656,16.876 18.596 C 17.358 18.535,17.865 18.415,18.001 18.329 C 18.138 18.242,18.419 18.171,18.625 18.169 L 19.000 18.167 19.000 22.250 M10.500 24.317 L 10.500 28.301 9.500 28.417 C 8.950 28.481,8.458 28.600,8.407 28.683 C 8.355 28.766,8.024 28.833,7.671 28.833 C 7.317 28.833,7.003 28.900,6.972 28.981 C 6.942 29.062,6.448 29.182,5.875 29.247 L 4.833 29.366 4.833 25.518 L 4.833 21.671 5.504 21.563 C 5.872 21.504,6.214 21.391,6.264 21.311 C 6.313 21.232,6.569 21.167,6.833 21.167 C 7.098 21.167,7.355 21.100,7.405 21.019 C 7.455 20.939,7.908 20.821,8.412 20.758 C 8.916 20.695,9.371 20.574,9.424 20.488 C 9.477 20.403,9.740 20.333,10.010 20.333 L 10.500 20.333 10.500 24.317 M131.375 27.777 C 131.217 27.841,131.167 28.764,131.167 31.597 L 131.167 35.333 131.833 35.333 L 132.500 35.333 132.500 33.583 L 132.500 31.833 134.167 31.833 L 135.833 31.833 135.833 33.583 L 135.833 35.333 136.417 35.333 L 137.000 35.333 137.000 31.587 L 137.000 27.840 136.593 27.737 C 135.924 27.570,135.833 27.762,135.833 29.343 L 135.833 30.833 134.167 30.833 L 132.500 30.833 132.500 29.351 C 132.500 27.707,132.287 27.409,131.375 27.777 M145.167 27.886 C 144.496 28.202,143.996 28.704,143.725 29.331 C 143.586 29.653,143.403 30.047,143.319 30.206 C 142.964 30.881,143.270 33.667,143.700 33.667 C 143.773 33.667,143.833 33.800,143.833 33.963 C 143.833 34.260,144.063 34.510,144.829 35.045 C 145.415 35.455,148.080 35.457,148.671 35.048 C 149.472 34.495,150.000 33.766,150.000 33.213 C 150.000 33.004,150.075 32.833,150.167 32.833 C 150.262 32.833,150.333 32.333,150.333 31.667 C 150.333 31.000,150.262 30.500,150.167 30.500 C 150.075 30.500,150.000 30.308,150.000 30.072 C 150.000 28.301,147.082 26.981,145.167 27.886 M155.542 27.777 C 155.427 27.823,155.333 28.080,155.333 28.347 L 155.333 28.833 156.500 28.833 L 157.667 28.833 157.667 32.083 L 157.667 35.333 158.250 35.333 L 158.833 35.333 158.833 32.083 L 158.833 28.833 160.083 28.833 L 161.333 28.833 161.333 28.351 C 161.333 28.065,161.226 27.828,161.070 27.768 C 160.756 27.648,155.842 27.656,155.542 27.777 M167.208 27.775 C 167.050 27.840,167.000 28.765,167.000 31.597 L 167.000 35.333 169.750 35.333 L 172.500 35.333 172.500 34.833 L 172.500 34.333 170.333 34.333 L 168.167 34.333 168.167 33.255 L 168.167 32.178 170.042 32.130 L 171.917 32.083 171.969 31.542 L 172.021 31.000 170.094 31.000 L 168.167 31.000 168.167 29.917 L 168.167 28.833 170.177 28.833 L 172.188 28.833 172.136 28.292 L 172.083 27.750 169.750 27.719 C 168.467 27.702,167.323 27.727,167.208 27.775 M178.619 27.770 C 178.553 27.835,178.500 29.566,178.500 31.616 L 178.500 35.342 180.958 35.296 L 183.417 35.250 183.469 34.792 L 183.522 34.333 181.598 34.333 L 179.674 34.333 179.629 31.042 L 179.583 27.750 179.160 27.701 C 178.928 27.674,178.684 27.705,178.619 27.770 M199.292 27.782 C 199.102 27.831,198.963 28.088,198.895 28.512 C 198.838 28.872,198.725 29.167,198.645 29.167 C 198.565 29.167,198.500 29.354,198.500 29.583 C 198.500 29.813,198.426 30.000,198.335 30.000 C 198.245 30.000,198.123 30.300,198.064 30.667 C 198.005 31.033,197.904 31.333,197.839 31.333 C 197.774 31.333,197.578 31.765,197.403 32.292 C 197.228 32.819,197.035 33.288,196.974 33.334 C 196.914 33.380,196.811 33.699,196.747 34.042 C 196.682 34.386,196.563 34.667,196.481 34.667 C 196.400 34.667,196.333 34.817,196.333 35.000 C 196.333 35.276,196.444 35.333,196.981 35.333 C 197.646 35.333,198.167 34.713,198.167 33.921 C 198.167 33.353,198.596 33.167,199.905 33.167 C 200.915 33.167,201.167 33.216,201.167 33.417 C 201.167 33.554,201.242 33.667,201.333 33.667 C 201.425 33.667,201.500 33.854,201.500 34.083 C 201.500 34.313,201.575 34.500,201.667 34.500 C 201.758 34.500,201.833 34.688,201.833 34.917 C 201.833 35.292,201.900 35.333,202.500 35.333 C 203.130 35.333,203.167 35.306,203.167 34.833 C 203.167 34.558,203.092 34.333,203.000 34.333 C 202.908 34.333,202.833 34.160,202.833 33.949 C 202.833 33.737,202.723 33.418,202.589 33.240 C 202.454 33.062,202.342 32.748,202.339 32.542 C 202.336 32.335,202.262 32.167,202.174 32.167 C 202.087 32.167,201.966 31.903,201.905 31.581 C 201.845 31.260,201.729 30.955,201.648 30.905 C 201.566 30.855,201.500 30.668,201.500 30.490 C 201.500 30.312,201.425 30.167,201.333 30.167 C 201.242 30.167,201.166 29.998,201.166 29.792 C 201.165 29.585,201.053 29.202,200.916 28.939 C 200.779 28.677,200.667 28.385,200.667 28.291 C 200.667 27.860,199.974 27.603,199.292 27.782 M209.112 27.875 C 208.855 28.063,208.831 28.445,208.872 31.667 L 208.917 35.250 209.483 35.304 C 210.227 35.375,210.328 35.178,210.331 33.648 L 210.333 32.380 211.869 32.292 C 212.774 32.240,213.429 32.128,213.466 32.019 C 213.500 31.917,213.607 31.833,213.704 31.833 C 214.350 31.833,214.617 29.093,214.036 28.417 C 213.431 27.712,209.871 27.320,209.112 27.875 M222.042 27.777 C 221.927 27.823,221.833 27.965,221.833 28.092 C 221.833 28.219,221.683 28.590,221.500 28.917 C 221.317 29.243,221.167 29.590,221.167 29.688 C 221.167 29.855,220.805 30.761,220.507 31.339 C 220.435 31.479,220.323 31.836,220.258 32.130 C 220.193 32.425,220.071 32.667,219.987 32.667 C 219.902 32.667,219.831 32.835,219.828 33.042 C 219.825 33.248,219.713 33.562,219.578 33.740 C 219.443 33.918,219.333 34.222,219.333 34.415 C 219.333 34.609,219.246 34.854,219.139 34.961 C 218.991 35.109,219.007 35.180,219.208 35.257 C 219.629 35.419,220.372 35.272,220.511 35.000 C 220.812 34.412,221.167 33.519,221.167 33.350 C 221.167 33.231,221.663 33.167,222.576 33.167 L 223.985 33.167 224.095 33.752 C 224.155 34.074,224.271 34.378,224.352 34.428 C 224.434 34.479,224.500 34.657,224.500 34.825 C 224.500 35.162,224.814 35.333,225.430 35.333 C 225.916 35.333,225.988 34.667,225.584 33.894 C 225.447 33.631,225.335 33.300,225.334 33.158 C 225.334 33.016,225.269 32.829,225.190 32.742 C 225.111 32.655,224.909 32.190,224.740 31.708 C 224.572 31.227,224.374 30.833,224.300 30.833 C 224.227 30.833,224.166 30.665,224.166 30.458 C 224.165 30.252,224.053 29.869,223.916 29.606 C 223.779 29.343,223.667 29.025,223.667 28.898 C 223.667 28.771,223.592 28.667,223.500 28.667 C 223.408 28.667,223.333 28.487,223.333 28.268 C 223.333 27.749,222.704 27.510,222.042 27.777 M231.875 27.777 C 231.717 27.841,231.667 28.764,231.667 31.597 L 231.667 35.333 232.333 35.333 L 233.000 35.333 233.000 33.750 L 233.000 32.167 234.213 32.167 C 235.709 32.167,236.000 32.411,236.000 33.669 C 236.000 34.126,236.075 34.500,236.167 34.500 C 236.258 34.500,236.333 34.688,236.333 34.917 C 236.333 35.292,236.400 35.333,237.000 35.333 C 237.556 35.333,237.667 35.278,237.667 35.000 C 237.667 34.817,237.592 34.667,237.500 34.667 C 237.408 34.667,237.333 34.227,237.333 33.681 C 237.333 33.138,237.270 32.669,237.193 32.639 C 236.915 32.529,236.837 31.538,237.090 31.327 C 237.224 31.217,237.333 30.916,237.333 30.660 C 237.333 30.404,237.427 30.160,237.542 30.119 C 237.708 30.059,237.708 29.973,237.542 29.691 C 237.427 29.497,237.331 29.206,237.328 29.044 C 237.308 27.995,233.518 27.114,231.875 27.777 M243.282 27.774 C 242.723 28.333,243.180 28.833,244.250 28.833 L 245.333 28.833 245.333 32.083 L 245.333 35.333 246.000 35.333 L 246.667 35.333 246.667 32.083 L 246.667 28.833 247.761 28.833 L 248.854 28.833 248.802 28.292 L 248.750 27.750 246.073 27.704 C 244.601 27.679,243.345 27.711,243.282 27.774 M254.875 27.777 C 254.717 27.841,254.667 28.764,254.667 31.597 L 254.667 35.333 255.167 35.333 L 255.667 35.333 255.667 33.000 C 255.667 31.556,255.730 30.667,255.833 30.667 C 255.925 30.667,256.000 30.835,256.001 31.042 C 256.002 31.248,256.114 31.631,256.251 31.894 C 256.388 32.157,256.500 32.475,256.500 32.602 C 256.500 32.729,256.566 32.833,256.646 32.833 C 256.726 32.833,256.840 33.077,256.900 33.374 C 257.037 34.060,257.377 34.833,257.541 34.833 C 257.610 34.833,257.667 34.946,257.667 35.083 C 257.667 35.759,258.950 35.377,259.064 34.667 C 259.123 34.300,259.245 34.000,259.335 34.000 C 259.426 34.000,259.500 33.813,259.500 33.583 C 259.500 33.354,259.568 33.167,259.652 33.167 C 259.736 33.167,259.855 32.867,259.917 32.500 C 259.979 32.133,260.098 31.833,260.181 31.833 C 260.265 31.833,260.333 31.650,260.333 31.427 C 260.333 31.203,260.408 30.973,260.500 30.917 C 260.608 30.850,260.667 31.609,260.667 33.073 L 260.667 35.333 261.167 35.333 L 261.667 35.333 261.667 31.578 C 261.667 28.391,261.629 27.808,261.416 27.727 C 261.031 27.579,260.333 27.810,260.333 28.087 C 260.333 28.222,260.265 28.333,260.181 28.333 C 260.098 28.333,259.979 28.633,259.917 29.000 C 259.855 29.367,259.736 29.667,259.652 29.667 C 259.568 29.667,259.500 29.771,259.500 29.898 C 259.500 30.025,259.388 30.343,259.251 30.606 C 259.114 30.869,259.002 31.252,259.001 31.458 C 259.000 31.665,258.932 31.833,258.848 31.833 C 258.764 31.833,258.645 32.133,258.583 32.500 C 258.408 33.537,258.119 33.262,257.486 31.458 C 257.365 31.115,257.206 30.833,257.133 30.833 C 257.060 30.833,257.000 30.665,256.999 30.458 C 256.998 30.252,256.886 29.869,256.749 29.606 C 256.612 29.343,256.500 29.025,256.500 28.898 C 256.500 28.771,256.425 28.667,256.333 28.667 C 256.242 28.667,256.167 28.487,256.167 28.268 C 256.167 27.749,255.538 27.510,254.875 27.777 M268.444 27.778 C 268.383 27.839,268.333 29.564,268.333 31.611 L 268.333 35.333 271.000 35.333 L 273.667 35.333 273.667 34.833 L 273.667 34.333 271.500 34.333 L 269.333 34.333 269.333 33.255 L 269.333 32.178 271.208 32.130 L 273.083 32.083 273.136 31.542 L 273.188 31.000 271.261 31.000 L 269.333 31.000 269.333 29.917 L 269.333 28.833 271.417 28.833 L 273.500 28.833 273.500 28.351 C 273.500 28.065,273.393 27.828,273.236 27.768 C 272.877 27.630,268.583 27.639,268.444 27.778 M279.944 27.778 C 279.883 27.839,279.833 29.564,279.833 31.611 L 279.833 35.333 280.333 35.333 L 280.833 35.333 280.839 32.792 L 280.844 30.250 281.181 30.667 C 281.366 30.896,281.619 31.207,281.742 31.357 C 281.865 31.508,282.016 31.789,282.078 31.982 C 282.139 32.175,282.259 32.333,282.345 32.333 C 282.430 32.333,282.500 32.446,282.500 32.583 C 282.500 32.721,282.558 32.833,282.629 32.833 C 282.700 32.833,282.899 33.096,283.072 33.417 C 283.244 33.737,283.441 34.000,283.508 34.000 C 283.575 34.000,283.678 34.188,283.735 34.417 C 283.793 34.646,283.913 34.833,284.003 34.833 C 284.093 34.833,284.167 34.946,284.167 35.083 C 284.167 35.264,284.352 35.333,284.833 35.333 L 285.500 35.333 285.500 31.593 C 285.500 27.663,285.478 27.552,284.741 27.737 L 284.333 27.840 284.323 30.462 C 284.316 32.217,284.262 32.958,284.160 32.705 C 284.076 32.496,283.900 32.285,283.769 32.234 C 283.638 32.184,283.482 31.950,283.423 31.715 C 283.330 31.345,282.620 30.245,282.315 30.000 C 282.258 29.954,282.159 29.748,282.095 29.542 C 282.030 29.335,281.908 29.167,281.822 29.167 C 281.737 29.167,281.667 29.089,281.667 28.993 C 281.667 28.819,281.507 28.592,280.958 27.988 C 280.669 27.670,280.159 27.564,279.944 27.778 M291.542 27.777 C 291.427 27.823,291.333 28.080,291.333 28.347 L 291.333 28.833 292.500 28.833 L 293.667 28.833 293.667 32.083 L 293.667 35.333 294.250 35.333 L 294.833 35.333 294.833 32.083 L 294.833 28.833 295.982 28.833 C 297.061 28.833,297.333 28.715,297.333 28.248 C 297.333 27.746,292.577 27.359,291.542 27.777 M303.750 27.867 C 302.366 28.655,302.241 31.500,303.590 31.500 C 303.724 31.500,303.833 31.566,303.833 31.648 C 303.833 31.729,304.040 31.837,304.292 31.887 C 306.764 32.380,306.927 32.485,306.853 33.529 C 306.810 34.134,305.111 34.578,304.571 34.125 C 303.941 33.597,303.833 33.454,303.833 33.143 C 303.833 32.116,302.613 32.061,302.528 33.083 C 302.394 34.696,303.364 35.398,305.607 35.310 C 307.079 35.252,307.137 35.234,307.644 34.691 C 308.531 33.741,308.240 31.333,307.238 31.333 C 307.107 31.333,307.000 31.268,307.000 31.188 C 307.000 31.108,306.475 30.991,305.833 30.928 C 305.192 30.865,304.667 30.743,304.667 30.657 C 304.667 30.570,304.572 30.500,304.457 30.500 C 304.092 30.500,303.803 29.868,304.000 29.500 C 304.565 28.444,306.833 28.771,306.833 29.909 C 306.833 30.100,307.012 30.167,307.521 30.167 C 308.202 30.167,308.207 30.162,308.104 29.646 C 308.047 29.359,308.000 29.078,308.000 29.021 C 307.999 28.831,307.256 28.055,306.886 27.860 C 306.420 27.613,304.187 27.618,303.750 27.867 M147.667 28.997 C 147.667 29.087,147.850 29.206,148.074 29.262 C 148.349 29.331,148.515 29.521,148.586 29.847 C 148.645 30.112,148.762 30.372,148.846 30.425 C 149.029 30.538,149.056 32.614,148.875 32.694 C 148.806 32.725,148.637 32.969,148.500 33.237 C 148.087 34.042,146.000 34.818,146.000 34.167 C 146.000 34.075,145.848 34.000,145.661 34.000 C 145.475 34.000,145.273 33.869,145.212 33.708 C 145.152 33.548,144.997 33.311,144.869 33.181 C 144.486 32.794,144.651 30.011,145.083 29.562 C 145.719 28.902,147.667 28.476,147.667 28.997 M212.500 29.000 C 212.500 29.092,212.612 29.167,212.750 29.167 C 212.887 29.167,213.000 29.273,213.000 29.403 C 213.000 29.533,213.094 29.670,213.208 29.709 C 213.370 29.763,213.360 29.888,213.167 30.264 C 212.813 30.952,212.715 30.995,211.458 30.997 L 210.333 31.000 210.333 29.917 L 210.333 28.833 211.417 28.833 C 212.028 28.833,212.500 28.906,212.500 29.000 M235.667 29.047 C 236.984 30.116,236.290 30.993,234.125 30.998 L 233.000 31.000 233.000 29.917 L 233.000 28.833 234.208 28.839 C 234.902 28.842,235.523 28.930,235.667 29.047 M28.333 33.967 L 28.333 38.266 27.780 38.467 C 27.475 38.577,26.913 38.667,26.530 38.667 C 26.147 38.667,25.833 38.732,25.833 38.812 C 25.833 38.892,25.084 39.010,24.168 39.075 C 23.253 39.140,22.461 39.262,22.408 39.347 C 22.356 39.431,22.168 39.500,21.990 39.500 C 21.678 39.500,21.667 39.346,21.667 35.250 C 21.667 31.111,21.675 31.000,22.000 31.000 C 22.183 31.000,22.333 30.933,22.333 30.851 C 22.333 30.769,22.933 30.648,23.667 30.583 C 24.400 30.518,25.000 30.408,25.000 30.338 C 25.000 30.267,25.533 30.157,26.184 30.093 C 26.835 30.029,27.529 29.911,27.726 29.832 C 27.922 29.753,28.140 29.683,28.208 29.677 C 28.277 29.671,28.333 31.602,28.333 33.967 M200.309 30.833 C 200.816 32.149,200.809 32.167,199.785 32.167 C 198.897 32.167,198.601 31.773,199.160 31.333 C 199.218 31.287,199.360 30.929,199.474 30.538 C 199.709 29.734,199.912 29.806,200.309 30.833 M222.761 30.208 C 222.826 30.415,222.926 30.621,222.984 30.667 C 223.042 30.712,223.171 31.069,223.271 31.458 L 223.454 32.167 222.560 32.167 C 221.778 32.167,221.667 32.125,221.667 31.833 C 221.667 31.650,221.742 31.500,221.833 31.500 C 221.925 31.500,222.000 31.313,222.000 31.083 C 222.000 30.854,222.075 30.667,222.167 30.667 C 222.258 30.667,222.333 30.479,222.333 30.250 C 222.333 29.731,222.604 29.705,222.761 30.208 M18.961 35.708 L 18.917 39.917 18.042 39.967 C 17.560 39.995,17.167 40.089,17.167 40.175 C 17.167 40.262,16.769 40.333,16.283 40.333 C 15.798 40.333,15.329 40.399,15.242 40.479 C 15.155 40.560,14.615 40.665,14.042 40.714 L 13.000 40.802 13.000 36.734 L 13.000 32.667 13.500 32.667 C 13.775 32.667,14.000 32.605,14.000 32.530 C 14.000 32.410,15.038 32.219,17.458 31.895 C 17.848 31.843,18.167 31.732,18.167 31.650 C 18.167 31.567,18.355 31.500,18.586 31.500 L 19.006 31.500 18.961 35.708 M10.500 37.159 L 10.500 41.152 9.875 41.250 C 9.531 41.304,9.063 41.390,8.833 41.442 C 8.604 41.494,7.985 41.572,7.458 41.616 C 6.931 41.660,6.500 41.765,6.500 41.848 C 6.500 41.932,6.125 42.000,5.667 42.000 L 4.833 42.000 4.833 38.167 C 4.833 34.444,4.843 34.333,5.167 34.333 C 5.350 34.333,5.500 34.258,5.500 34.167 C 5.500 34.075,5.759 34.000,6.075 34.000 C 6.392 34.000,7.082 33.887,7.610 33.750 C 8.138 33.612,8.817 33.500,9.118 33.500 C 9.420 33.500,9.667 33.425,9.667 33.333 C 9.667 33.242,9.854 33.167,10.083 33.167 L 10.500 33.167 10.500 37.159 M28.166 52.418 C 28.048 52.560,27.113 52.665,25.245 52.748 C 23.734 52.814,22.456 52.936,22.406 53.018 C 22.355 53.100,22.168 53.167,21.990 53.167 C 21.678 53.167,21.667 53.013,21.667 48.957 L 21.667 44.748 22.125 44.553 C 22.377 44.446,23.333 44.306,24.250 44.243 C 25.167 44.179,25.994 44.065,26.089 43.990 C 26.184 43.914,26.709 43.829,27.256 43.801 L 28.250 43.750 28.295 47.979 C 28.323 50.727,28.278 52.282,28.166 52.418 M19.000 49.225 L 19.000 53.449 17.224 53.558 C 16.247 53.618,15.085 53.667,14.641 53.667 C 14.197 53.667,13.833 53.742,13.833 53.833 C 13.833 53.925,13.646 54.000,13.417 54.000 L 13.000 54.000 13.000 49.917 L 13.000 45.833 13.500 45.833 C 13.775 45.833,14.000 45.758,14.000 45.667 C 14.000 45.574,14.444 45.500,15.000 45.500 C 15.550 45.500,16.000 45.428,16.000 45.341 C 16.000 45.253,16.506 45.156,17.125 45.124 C 17.744 45.092,18.419 45.051,18.625 45.033 L 19.000 45.000 19.000 49.225 M10.500 50.141 L 10.500 54.283 8.724 54.391 C 7.747 54.451,6.585 54.500,6.141 54.500 C 5.697 54.500,5.333 54.575,5.333 54.667 C 5.333 54.758,5.221 54.833,5.083 54.833 C 4.868 54.833,4.833 54.279,4.833 50.848 L 4.833 46.862 6.125 46.755 C 6.835 46.696,7.589 46.577,7.800 46.491 C 8.010 46.404,8.591 46.333,9.091 46.333 C 9.591 46.333,10.000 46.258,10.000 46.167 C 10.000 46.075,10.112 46.000,10.250 46.000 C 10.466 46.000,10.500 46.571,10.500 50.141 M72.417 46.167 C 72.360 46.258,72.018 46.333,71.657 46.333 C 71.296 46.333,71.000 46.408,71.000 46.500 C 71.000 46.592,70.805 46.667,70.567 46.667 C 70.150 46.667,69.006 47.114,68.833 47.344 C 68.787 47.405,68.581 47.508,68.375 47.572 C 68.169 47.636,68.000 47.759,68.000 47.845 C 68.000 47.930,67.922 48.000,67.826 48.000 C 67.304 48.000,65.333 50.416,65.333 51.056 C 65.333 51.209,65.258 51.333,65.167 51.333 C 65.075 51.333,65.000 51.515,65.000 51.736 C 65.000 51.958,64.906 52.170,64.792 52.208 C 64.635 52.261,64.583 53.021,64.583 55.250 C 64.583 57.480,64.635 58.240,64.792 58.292 C 64.906 58.330,65.000 58.542,65.000 58.764 C 65.000 58.985,65.075 59.167,65.167 59.167 C 65.258 59.167,65.333 59.260,65.333 59.374 C 65.333 60.059,67.704 62.667,68.326 62.667 C 68.422 62.667,68.500 62.730,68.500 62.808 C 68.500 62.886,68.819 63.082,69.208 63.245 C 69.598 63.407,70.067 63.605,70.250 63.685 C 70.886 63.962,72.754 64.328,73.542 64.331 C 73.977 64.332,74.333 64.397,74.333 64.475 C 74.333 64.554,74.990 64.668,75.792 64.729 C 76.594 64.791,77.275 64.914,77.306 65.004 C 77.336 65.093,77.542 65.167,77.764 65.167 C 77.985 65.167,78.167 65.240,78.167 65.330 C 78.167 65.420,78.335 65.537,78.542 65.589 C 79.626 65.866,80.651 70.145,79.708 70.458 C 79.594 70.497,79.500 70.600,79.500 70.689 C 79.500 70.961,78.621 71.684,77.833 72.059 C 76.929 72.490,71.344 72.616,71.208 72.208 C 71.170 72.094,70.956 72.000,70.733 72.000 C 70.321 72.000,68.130 71.021,68.028 70.792 C 67.997 70.723,67.884 70.667,67.776 70.667 C 67.668 70.667,67.378 70.479,67.131 70.250 C 66.883 70.021,66.603 69.833,66.507 69.833 C 66.412 69.833,66.333 69.758,66.333 69.667 C 66.333 69.337,65.967 69.511,65.405 70.107 C 65.091 70.440,64.833 70.764,64.833 70.827 C 64.833 70.889,64.424 71.373,63.923 71.903 C 62.573 73.330,62.561 73.602,63.810 74.368 C 64.144 74.572,64.565 74.876,64.747 75.043 C 64.928 75.210,65.247 75.389,65.455 75.441 C 65.663 75.493,65.833 75.603,65.833 75.685 C 65.833 75.766,65.946 75.833,66.083 75.833 C 66.221 75.833,66.333 75.902,66.333 75.987 C 66.333 76.071,66.577 76.193,66.875 76.258 C 67.173 76.322,67.454 76.427,67.500 76.491 C 67.659 76.711,69.009 77.167,69.503 77.167 C 69.777 77.167,70.000 77.231,70.000 77.310 C 70.000 77.554,71.808 77.732,74.333 77.737 C 76.855 77.742,78.833 77.554,78.833 77.310 C 78.833 77.231,78.982 77.167,79.163 77.167 C 79.588 77.167,80.851 76.665,81.137 76.384 C 81.258 76.264,81.446 76.166,81.554 76.165 C 81.795 76.163,83.833 74.086,83.833 73.842 C 83.833 73.746,83.905 73.667,83.992 73.667 C 84.080 73.667,84.201 73.404,84.261 73.083 C 84.321 72.762,84.437 72.500,84.519 72.500 C 84.600 72.500,84.667 72.319,84.667 72.097 C 84.667 71.876,84.760 71.663,84.875 71.625 C 85.445 71.435,85.042 65.000,84.459 65.000 C 84.390 65.000,84.333 64.818,84.333 64.595 C 84.333 64.373,84.221 64.078,84.083 63.940 C 83.946 63.803,83.833 63.610,83.833 63.512 C 83.833 63.414,83.763 63.333,83.678 63.333 C 83.592 63.333,83.477 63.189,83.421 63.012 C 83.289 62.597,82.070 61.378,81.654 61.246 C 81.478 61.190,81.333 61.074,81.333 60.989 C 81.333 60.903,81.221 60.833,81.083 60.833 C 80.946 60.833,80.833 60.759,80.833 60.669 C 80.833 60.578,80.533 60.456,80.167 60.397 C 79.800 60.339,79.500 60.225,79.500 60.145 C 79.500 60.065,79.327 60.000,79.117 60.000 C 78.906 60.000,78.654 59.921,78.557 59.824 C 78.461 59.727,77.696 59.604,76.857 59.549 C 76.019 59.495,75.333 59.387,75.333 59.309 C 75.333 59.231,74.963 59.167,74.510 59.167 C 74.057 59.167,73.644 59.099,73.593 59.016 C 73.542 58.933,73.125 58.813,72.666 58.750 C 72.208 58.687,71.833 58.567,71.833 58.484 C 71.833 58.401,71.722 58.333,71.586 58.333 C 71.055 58.333,69.830 56.918,69.697 56.149 C 69.552 55.314,69.758 53.444,70.003 53.361 C 70.093 53.331,70.167 53.237,70.167 53.153 C 70.167 52.947,70.791 52.333,71.000 52.333 C 71.092 52.333,71.167 52.260,71.167 52.170 C 71.167 52.080,71.354 51.959,71.583 51.902 C 71.813 51.844,72.000 51.730,72.000 51.649 C 72.000 51.567,72.221 51.500,72.490 51.500 C 72.760 51.500,73.027 51.425,73.083 51.333 C 73.140 51.242,73.744 51.167,74.427 51.167 C 75.142 51.167,75.667 51.237,75.667 51.333 C 75.667 51.425,75.962 51.500,76.323 51.500 C 76.685 51.500,77.021 51.566,77.071 51.647 C 77.122 51.729,77.501 51.846,77.915 51.908 C 78.328 51.970,78.667 52.091,78.667 52.177 C 78.667 52.263,78.773 52.333,78.903 52.333 C 79.181 52.333,80.225 52.861,80.306 53.042 C 80.336 53.110,80.458 53.167,80.577 53.167 C 80.695 53.167,80.886 53.279,81.000 53.417 C 81.420 53.923,82.432 53.075,82.985 51.753 C 83.023 51.663,83.154 51.489,83.277 51.366 C 83.400 51.243,83.500 51.036,83.500 50.905 C 83.500 50.774,83.559 50.667,83.631 50.667 C 83.807 50.667,84.333 49.760,84.333 49.456 C 84.333 49.114,81.597 47.500,81.016 47.500 C 80.916 47.500,80.833 47.425,80.833 47.333 C 80.833 47.242,80.646 47.167,80.417 47.167 C 80.188 47.167,80.000 47.097,80.000 47.012 C 80.000 46.927,79.587 46.806,79.081 46.743 C 78.576 46.679,78.121 46.561,78.071 46.481 C 78.021 46.400,77.652 46.333,77.250 46.333 C 76.848 46.333,76.473 46.258,76.417 46.167 C 76.358 46.071,75.502 46.000,74.417 46.000 C 73.332 46.000,72.476 46.071,72.417 46.167 M245.583 46.167 C 245.527 46.258,245.185 46.333,244.823 46.333 C 244.462 46.333,244.167 46.399,244.167 46.479 C 244.167 46.559,243.863 46.673,243.493 46.732 C 242.812 46.841,242.285 47.077,241.870 47.458 C 241.745 47.573,241.574 47.667,241.489 47.667 C 241.015 47.667,238.167 50.608,238.167 51.097 C 238.167 51.227,238.097 51.333,238.011 51.333 C 237.926 51.333,237.803 51.502,237.739 51.708 C 237.674 51.915,237.572 52.121,237.511 52.167 C 237.271 52.347,236.833 54.083,236.833 54.852 C 236.833 55.300,236.758 55.667,236.667 55.667 C 236.559 55.667,236.500 57.861,236.500 61.917 C 236.500 65.354,236.565 68.167,236.644 68.167 C 236.724 68.167,236.825 68.675,236.869 69.296 C 236.914 69.917,237.030 70.573,237.127 70.754 C 237.225 70.935,237.500 71.519,237.738 72.051 C 238.224 73.137,238.231 73.146,239.500 74.469 C 240.477 75.488,241.530 76.333,241.822 76.333 C 241.920 76.333,242.000 76.391,242.000 76.461 C 242.000 76.635,243.257 77.167,243.668 77.167 C 243.851 77.167,244.000 77.225,244.000 77.295 C 244.000 77.943,250.285 77.937,250.933 77.289 C 251.000 77.222,251.200 77.167,251.377 77.167 C 251.662 77.167,252.610 76.730,252.833 76.496 C 252.879 76.448,253.140 76.267,253.412 76.093 C 254.604 75.333,256.500 73.438,256.500 73.007 C 256.500 72.911,256.570 72.833,256.655 72.833 C 256.741 72.833,256.864 72.665,256.928 72.458 C 256.992 72.252,257.096 72.046,257.159 72.000 C 257.372 71.845,257.833 70.496,257.833 70.030 C 257.833 69.775,257.917 69.483,258.020 69.380 C 258.261 69.139,258.284 54.678,258.044 54.521 C 257.956 54.464,257.844 54.117,257.796 53.750 C 257.702 53.038,257.418 52.322,256.804 51.250 C 256.314 50.395,253.675 47.744,253.151 47.580 C 252.930 47.511,252.713 47.405,252.667 47.344 C 252.511 47.136,251.368 46.667,251.016 46.667 C 250.824 46.667,250.667 46.592,250.667 46.500 C 250.667 46.408,250.371 46.333,250.010 46.333 C 249.649 46.333,249.307 46.258,249.250 46.167 C 249.192 46.073,248.390 46.000,247.417 46.000 C 246.443 46.000,245.641 46.073,245.583 46.167 M360.833 46.167 C 360.833 46.258,360.496 46.333,360.083 46.333 C 359.671 46.333,359.333 46.408,359.333 46.500 C 359.333 46.592,359.138 46.667,358.900 46.667 C 358.484 46.667,357.339 47.114,357.167 47.344 C 357.121 47.405,356.915 47.508,356.708 47.572 C 356.502 47.636,356.333 47.759,356.333 47.845 C 356.333 47.930,356.261 48.000,356.172 48.000 C 355.773 48.000,353.889 50.298,353.719 50.993 C 353.662 51.226,353.564 51.454,353.502 51.500 C 352.579 52.176,352.684 57.325,353.663 59.417 C 354.141 60.439,355.594 62.167,355.975 62.167 C 356.080 62.167,356.167 62.238,356.167 62.324 C 356.167 62.530,356.688 62.819,358.583 63.663 C 359.225 63.950,361.112 64.333,361.876 64.333 C 362.300 64.333,362.686 64.397,362.734 64.475 C 362.783 64.553,363.443 64.664,364.202 64.723 C 364.961 64.781,365.607 64.905,365.638 64.998 C 365.669 65.091,365.876 65.167,366.097 65.167 C 366.319 65.167,366.500 65.242,366.500 65.333 C 366.500 65.425,366.606 65.500,366.736 65.500 C 367.150 65.500,368.170 66.639,368.268 67.210 C 368.319 67.507,368.440 67.915,368.537 68.117 C 368.662 68.375,368.662 68.622,368.538 68.950 C 368.441 69.207,368.317 69.672,368.263 69.985 C 368.158 70.589,367.086 71.732,366.435 71.935 C 366.241 71.996,366.030 72.129,365.964 72.231 C 365.787 72.507,359.920 72.487,359.642 72.208 C 359.527 72.094,359.280 72.000,359.092 71.999 C 358.904 71.999,358.300 71.774,357.750 71.500 C 357.200 71.226,356.656 71.001,356.542 71.001 C 356.427 71.000,356.333 70.937,356.333 70.860 C 356.333 70.782,356.071 70.578,355.750 70.405 C 355.429 70.232,355.167 70.036,355.167 69.968 C 355.167 69.225,353.205 70.120,353.172 70.878 C 353.169 70.948,352.832 71.350,352.422 71.771 C 352.012 72.193,351.632 72.679,351.577 72.852 C 351.522 73.025,351.408 73.167,351.322 73.167 C 350.837 73.167,351.873 74.384,352.538 74.595 C 352.700 74.647,352.833 74.759,352.833 74.845 C 352.833 74.930,352.946 75.000,353.083 75.000 C 353.221 75.000,353.333 75.070,353.333 75.155 C 353.333 75.241,353.502 75.364,353.708 75.428 C 353.915 75.492,354.121 75.595,354.167 75.656 C 354.283 75.811,355.427 76.333,355.650 76.333 C 355.751 76.333,355.833 76.408,355.833 76.500 C 355.833 76.592,356.021 76.667,356.250 76.667 C 356.479 76.667,356.667 76.735,356.667 76.818 C 356.667 76.901,357.042 77.020,357.500 77.083 C 357.958 77.146,358.333 77.255,358.333 77.325 C 358.333 77.880,366.921 77.865,367.265 77.310 C 367.313 77.231,367.519 77.167,367.723 77.167 C 368.197 77.167,369.998 76.250,370.360 75.825 C 370.512 75.646,370.709 75.500,370.798 75.500 C 371.030 75.500,372.167 74.167,372.167 73.895 C 372.167 73.769,372.234 73.667,372.315 73.667 C 372.499 73.667,373.000 72.445,373.000 71.997 C 373.000 71.815,373.067 71.667,373.148 71.667 C 373.393 71.667,373.542 70.523,373.540 68.667 C 373.537 66.754,373.382 65.500,373.149 65.500 C 373.067 65.500,373.000 65.343,373.000 65.151 C 373.000 64.792,372.578 63.929,372.208 63.533 C 372.094 63.410,372.000 63.243,372.000 63.163 C 372.000 62.926,370.375 61.369,370.005 61.252 C 369.819 61.193,369.667 61.074,369.667 60.989 C 369.667 60.903,369.554 60.833,369.417 60.833 C 369.279 60.833,369.167 60.762,369.167 60.674 C 369.167 60.587,368.904 60.466,368.583 60.406 C 368.262 60.345,368.000 60.230,368.000 60.148 C 368.000 60.067,367.781 60.000,367.514 60.000 C 367.247 60.000,367.003 59.929,366.972 59.843 C 366.942 59.757,366.317 59.639,365.583 59.581 C 364.850 59.523,364.100 59.410,363.917 59.330 C 363.733 59.250,363.246 59.148,362.833 59.104 C 361.658 58.978,360.167 58.625,360.167 58.472 C 360.167 58.396,360.057 58.333,359.923 58.333 C 359.612 58.333,358.333 57.050,358.333 56.737 C 358.333 56.607,358.258 56.500,358.167 56.500 C 357.955 56.500,357.943 54.055,358.154 53.925 C 358.238 53.872,358.354 53.624,358.411 53.373 C 358.560 52.710,360.298 51.500,361.102 51.500 C 361.321 51.500,361.500 51.425,361.500 51.333 C 361.500 51.237,362.028 51.167,362.750 51.167 C 363.472 51.167,364.000 51.237,364.000 51.333 C 364.000 51.425,364.296 51.500,364.657 51.500 C 365.018 51.500,365.354 51.565,365.403 51.645 C 365.452 51.724,365.783 51.836,366.137 51.893 C 366.723 51.986,369.193 53.153,369.575 53.516 C 369.878 53.804,370.297 53.669,370.402 53.250 C 370.459 53.021,370.580 52.833,370.670 52.833 C 370.760 52.833,370.833 52.721,370.833 52.583 C 370.833 52.446,370.903 52.333,370.989 52.333 C 371.074 52.333,371.197 52.165,371.263 51.958 C 371.328 51.752,371.510 51.471,371.667 51.333 C 371.824 51.196,372.006 50.915,372.071 50.708 C 372.136 50.502,372.259 50.333,372.345 50.333 C 372.430 50.333,372.500 50.221,372.500 50.083 C 372.500 49.946,372.575 49.833,372.667 49.833 C 373.245 49.833,372.512 48.992,371.419 48.402 C 371.234 48.302,370.784 48.059,370.419 47.860 C 370.054 47.662,369.623 47.500,369.461 47.500 C 369.299 47.500,369.167 47.425,369.167 47.333 C 369.167 47.242,368.979 47.167,368.750 47.167 C 368.521 47.167,368.333 47.097,368.333 47.012 C 368.333 46.927,367.921 46.806,367.417 46.743 C 366.912 46.680,366.500 46.562,366.500 46.481 C 366.500 46.400,366.129 46.333,365.677 46.333 C 365.224 46.333,364.807 46.258,364.750 46.167 C 364.691 46.071,363.832 46.000,362.740 46.000 C 361.580 46.000,360.833 46.065,360.833 46.167 M89.333 48.667 L 89.333 51.000 93.417 51.000 L 97.500 51.000 97.500 64.250 L 97.500 77.500 100.000 77.500 L 102.500 77.500 102.500 64.250 L 102.500 51.000 106.583 51.000 L 110.667 51.000 110.667 48.667 L 110.667 46.333 100.000 46.333 L 89.333 46.333 89.333 48.667 M116.167 61.917 L 116.167 77.500 118.583 77.500 L 121.000 77.500 121.000 70.833 L 121.000 64.167 126.750 64.167 L 132.500 64.167 132.500 70.833 L 132.500 77.500 135.000 77.500 L 137.500 77.500 137.500 61.917 L 137.500 46.333 135.000 46.333 L 132.500 46.333 132.500 52.917 L 132.500 59.500 126.750 59.500 L 121.000 59.500 121.000 52.917 L 121.000 46.333 118.583 46.333 L 116.167 46.333 116.167 61.917 M146.000 61.917 L 146.000 77.500 155.671 77.500 L 165.342 77.500 165.296 75.042 L 165.250 72.583 158.042 72.540 L 150.833 72.496 150.833 59.415 L 150.833 46.333 148.417 46.333 L 146.000 46.333 146.000 61.917 M172.000 61.917 L 172.000 77.500 174.417 77.500 L 176.833 77.500 176.833 68.583 C 176.833 62.750,176.891 59.667,177.000 59.667 C 177.092 59.667,177.167 59.771,177.167 59.898 C 177.167 60.025,177.279 60.343,177.416 60.606 C 177.553 60.869,177.665 61.215,177.666 61.375 C 177.666 61.535,177.742 61.667,177.833 61.667 C 177.925 61.667,178.000 61.812,178.000 61.990 C 178.000 62.168,178.069 62.356,178.154 62.409 C 178.238 62.461,178.359 62.736,178.421 63.020 C 178.483 63.303,178.706 63.884,178.915 64.309 C 179.565 65.630,179.833 66.290,179.833 66.567 C 179.833 66.713,179.908 66.833,180.000 66.833 C 180.092 66.833,180.167 66.968,180.167 67.133 C 180.167 67.298,180.231 67.505,180.310 67.592 C 180.389 67.679,180.591 68.144,180.760 68.625 C 180.928 69.106,181.126 69.500,181.200 69.500 C 181.273 69.500,181.334 69.631,181.334 69.792 C 181.335 69.952,181.447 70.298,181.584 70.561 C 181.721 70.823,181.833 71.142,181.833 71.269 C 181.833 71.396,181.902 71.500,181.987 71.500 C 182.071 71.500,182.193 71.741,182.258 72.036 C 182.503 73.152,182.536 73.167,184.833 73.167 C 187.131 73.167,187.164 73.152,187.409 72.036 C 187.473 71.741,187.577 71.500,187.638 71.500 C 187.700 71.500,187.894 71.050,188.070 70.500 C 188.245 69.950,188.448 69.500,188.520 69.500 C 188.593 69.500,188.703 69.219,188.766 68.875 C 188.830 68.531,188.927 68.212,188.982 68.167 C 189.164 68.017,189.500 67.343,189.501 67.127 C 189.501 67.011,189.683 66.559,189.905 66.121 C 190.127 65.684,190.358 65.103,190.417 64.830 C 190.477 64.557,190.580 64.333,190.646 64.333 C 190.712 64.333,190.866 64.052,190.987 63.708 C 191.108 63.365,191.384 62.692,191.599 62.213 C 191.815 61.734,192.039 61.153,192.097 60.921 C 192.155 60.689,192.260 60.500,192.330 60.500 C 192.400 60.500,192.523 60.181,192.604 59.792 C 192.696 59.344,192.766 62.469,192.793 68.296 L 192.836 77.509 195.376 77.463 L 197.917 77.417 197.917 61.917 L 197.917 46.417 195.492 46.371 L 193.068 46.325 192.784 46.968 C 192.628 47.322,192.500 47.699,192.500 47.806 C 192.500 47.913,192.428 48.000,192.341 48.000 C 192.253 48.000,192.130 48.281,192.067 48.625 C 192.004 48.969,191.903 49.288,191.842 49.333 C 191.635 49.491,191.167 50.634,191.167 50.984 C 191.167 51.176,191.110 51.333,191.041 51.333 C 190.909 51.333,190.616 51.953,190.409 52.667 C 190.343 52.896,190.242 53.121,190.186 53.167 C 190.061 53.268,189.665 54.275,189.547 54.792 C 189.500 54.998,189.401 55.167,189.329 55.167 C 189.256 55.167,189.145 55.467,189.083 55.833 C 189.021 56.200,188.921 56.501,188.860 56.501 C 188.735 56.503,188.335 57.310,188.330 57.575 C 188.328 57.671,188.104 58.200,187.833 58.750 C 187.562 59.300,187.339 59.881,187.337 60.042 C 187.335 60.202,187.258 60.333,187.167 60.333 C 187.075 60.333,187.000 60.521,187.000 60.750 C 187.000 60.979,186.925 61.167,186.833 61.167 C 186.742 61.167,186.667 61.249,186.667 61.350 C 186.667 61.451,186.548 61.807,186.403 62.141 C 186.258 62.476,186.033 62.996,185.903 63.297 C 185.773 63.598,185.667 63.955,185.667 64.089 C 185.667 64.223,185.600 64.333,185.519 64.333 C 185.437 64.333,185.321 64.596,185.261 64.917 C 185.090 65.827,184.741 65.583,184.248 64.208 C 184.075 63.727,183.874 63.333,183.800 63.333 C 183.727 63.333,183.666 63.202,183.666 63.042 C 183.665 62.881,183.553 62.535,183.416 62.273 C 183.279 62.010,183.167 61.691,183.167 61.564 C 183.167 61.437,183.100 61.333,183.018 61.333 C 182.936 61.333,182.820 61.127,182.759 60.875 C 182.607 60.248,182.275 59.500,182.147 59.500 C 182.090 59.500,181.995 59.200,181.936 58.833 C 181.877 58.467,181.755 58.167,181.665 58.167 C 181.574 58.167,181.500 58.059,181.500 57.928 C 181.500 57.797,181.284 57.216,181.019 56.637 C 180.755 56.057,180.440 55.302,180.319 54.958 C 180.199 54.615,180.040 54.333,179.967 54.333 C 179.893 54.333,179.833 54.202,179.832 54.042 C 179.832 53.881,179.719 53.535,179.582 53.273 C 179.445 53.010,179.333 52.691,179.333 52.564 C 179.333 52.437,179.266 52.333,179.185 52.333 C 179.103 52.333,178.986 52.127,178.925 51.875 C 178.765 51.209,178.438 50.500,178.293 50.500 C 178.223 50.500,178.167 50.380,178.167 50.234 C 178.167 49.965,177.850 49.151,177.406 48.278 C 177.275 48.019,177.167 47.662,177.167 47.486 C 177.167 47.311,177.100 47.167,177.018 47.167 C 176.936 47.167,176.822 46.979,176.765 46.750 L 176.660 46.333 174.330 46.333 L 172.000 46.333 172.000 61.917 M207.333 61.917 L 207.333 77.500 209.917 77.500 L 212.500 77.500 212.500 70.833 L 212.500 64.167 218.083 64.167 L 223.667 64.167 223.667 70.833 L 223.667 77.500 226.250 77.500 L 228.833 77.500 228.833 61.917 L 228.833 46.333 226.250 46.333 L 223.667 46.333 223.667 52.917 L 223.667 59.500 218.083 59.500 L 212.500 59.500 212.500 52.917 L 212.500 46.333 209.917 46.333 L 207.333 46.333 207.333 61.917 M262.239 46.551 C 262.193 46.671,262.177 47.702,262.203 48.843 L 262.250 50.917 266.208 50.961 L 270.167 51.006 270.167 64.253 L 270.167 77.500 272.750 77.500 L 275.333 77.500 275.333 64.250 L 275.333 51.000 279.417 51.000 L 283.500 51.000 283.500 48.667 L 283.500 46.333 272.911 46.333 C 264.354 46.333,262.307 46.375,262.239 46.551 M289.000 61.917 L 289.000 77.500 298.754 77.500 L 308.509 77.500 308.463 75.042 L 308.417 72.583 301.208 72.540 L 294.000 72.496 294.000 68.334 L 294.000 64.171 300.125 64.127 L 306.250 64.083 306.296 61.792 L 306.343 59.500 300.171 59.500 L 294.000 59.500 294.000 55.333 L 294.000 51.167 301.250 51.167 L 308.500 51.167 308.500 48.750 L 308.500 46.333 298.750 46.333 L 289.000 46.333 289.000 61.917 M315.077 46.542 C 315.033 46.656,315.017 53.650,315.040 62.083 L 315.083 77.417 324.879 77.460 L 334.676 77.503 334.629 75.043 L 334.583 72.583 327.375 72.540 L 320.167 72.496 320.167 59.415 L 320.167 46.333 317.661 46.333 C 315.811 46.333,315.135 46.388,315.077 46.542 M380.743 46.542 C 380.700 46.656,380.683 53.650,380.707 62.083 L 380.750 77.417 390.375 77.460 L 400.000 77.503 400.000 75.001 L 400.000 72.500 392.917 72.500 L 385.833 72.500 385.833 68.333 L 385.833 64.167 392.000 64.167 L 398.167 64.167 398.167 61.833 L 398.167 59.500 392.000 59.500 L 385.833 59.500 385.833 55.333 L 385.833 51.167 392.917 51.167 L 400.000 51.167 400.000 48.750 L 400.000 46.333 390.411 46.333 C 382.894 46.333,380.806 46.378,380.743 46.542 M248.333 51.333 C 248.333 51.425,248.554 51.500,248.823 51.500 C 249.093 51.500,249.355 51.567,249.405 51.648 C 249.456 51.730,249.687 51.844,249.919 51.902 C 250.527 52.055,252.032 53.639,252.396 54.508 C 252.567 54.916,252.791 55.430,252.895 55.650 C 253.024 55.924,253.083 57.902,253.083 61.917 C 253.083 65.931,253.024 67.909,252.895 68.183 C 252.791 68.403,252.568 68.915,252.398 69.321 C 252.031 70.199,251.159 71.210,250.341 71.707 C 250.016 71.904,249.697 72.145,249.631 72.241 C 249.390 72.597,245.836 72.458,245.000 72.060 C 243.657 71.421,242.000 69.368,242.000 68.343 C 242.000 68.170,241.909 67.997,241.797 67.960 C 241.500 67.861,241.494 56.439,241.792 56.142 C 241.906 56.027,242.000 55.777,242.000 55.585 C 242.000 54.534,243.693 52.334,244.833 51.903 C 244.971 51.851,245.214 51.739,245.373 51.655 C 245.532 51.570,245.813 51.500,245.998 51.500 C 246.182 51.500,246.333 51.425,246.333 51.333 C 246.333 51.241,246.778 51.167,247.333 51.167 C 247.889 51.167,248.333 51.241,248.333 51.333 M341.208 72.610 C 341.055 72.672,341.000 73.331,341.000 75.097 L 341.000 77.500 343.500 77.500 L 346.000 77.500 346.000 75.173 C 346.000 73.042,345.973 72.830,345.678 72.673 C 345.358 72.501,341.608 72.449,341.208 72.610 " stroke="none" fill="#09385f" fill-rule="evenodd"></path></g></svg>