<?xml version="1.0" encoding="utf-8"?>
<!-- Generator: Adobe Illustrator 19.0.0, SVG Export Plug-In . SVG Version: 6.00 Build 0)  -->
<svg version="1.1" id="Layer_1" xmlns="http://www.w3.org/2000/svg" xmlns:xlink="http://www.w3.org/1999/xlink" x="0px" y="0px"
	 width="615.7px" height="115.8px" viewBox="0.2 334.3 615.7 115.8" style="enable-background:new 0.2 334.3 615.7 115.8;"
	 xml:space="preserve">
<style type="text/css">
	.st0{fill:#FFFFFF;}
	.st1{font-family:'Lato-Bold';}
	.st2{font-size:101px;}
	.st3{fill:#FFAA00;}
</style>
<text transform="matrix(1 0 0 1 0.1875 421.323)" class="st0 st1 st2">STHLM Hotel</text>
<g>
	<g>
		<path class="st3" d="M496.6,431.7c0,0.3-0.1,0.4-0.4,0.6l-4.8,4.7l1.1,6.6c0,0,0,0.1,0,0.3c0,0.1,0,0.4-0.1,0.5
			c-0.1,0.1-0.3,0.3-0.4,0.3s-0.4,0-0.5-0.1l-6-3.2l-6,3.2c-0.3,0.1-0.4,0.1-0.5,0.1c-0.1,0-0.4-0.1-0.4-0.3
			c-0.1-0.1-0.1-0.3-0.1-0.5c0,0,0-0.1,0-0.3l1.1-6.6l-4.8-4.7c-0.3-0.3-0.4-0.5-0.4-0.6c0-0.4,0.3-0.5,0.8-0.6l6.8-1l3.1-6.1
			c0.1-0.4,0.4-0.5,0.6-0.5c0.3,0,0.5,0.1,0.6,0.5l3.1,6.1l6.8,1C496.3,431.2,496.6,431.4,496.6,431.7z"/>
	</g>
	<g>
		<path class="st3" d="M524.8,431.7c0,0.3-0.1,0.4-0.4,0.6l-4.8,4.7l1.1,6.6c0,0,0,0.1,0,0.3c0,0.1,0,0.4-0.1,0.5
			c-0.1,0.1-0.3,0.3-0.4,0.3c-0.1,0-0.4,0-0.5-0.1l-6-3.2l-6,3.2c-0.3,0.1-0.4,0.1-0.5,0.1c-0.1,0-0.4-0.1-0.4-0.3
			c-0.1-0.1-0.1-0.3-0.1-0.5c0,0,0-0.1,0-0.3l1.1-6.6l-4.8-4.7c-0.3-0.3-0.4-0.5-0.4-0.6c0-0.4,0.3-0.5,0.8-0.6l6.8-1l3.1-6.1
			c0.1-0.4,0.4-0.5,0.6-0.5c0.3,0,0.5,0.1,0.6,0.5l3.1,6.1l6.8,1C524.5,431.2,524.8,431.4,524.8,431.7z"/>
	</g>
	<g>
		<path class="st3" d="M553.1,431.7c0,0.3-0.1,0.4-0.4,0.6l-4.8,4.7l1.1,6.6c0,0,0,0.1,0,0.3c0,0.1,0,0.4-0.1,0.5
			c-0.1,0.1-0.3,0.3-0.4,0.3c-0.1,0-0.4,0-0.5-0.1l-6-3.2l-6,3.2c-0.3,0.1-0.4,0.1-0.5,0.1s-0.4-0.1-0.4-0.3
			c-0.1-0.1-0.1-0.3-0.1-0.5c0,0,0-0.1,0-0.3l1.1-6.6l-4.8-4.7c-0.3-0.3-0.4-0.5-0.4-0.6c0-0.4,0.3-0.5,0.8-0.6l6.8-1l3.1-6.1
			c0.1-0.4,0.4-0.5,0.6-0.5c0.3,0,0.5,0.1,0.6,0.5l3.1,6.1l6.8,1C552.8,431.2,553.1,431.4,553.1,431.7z"/>
	</g>
	<g>
		<path class="st3" d="M581.3,431.7c0,0.3-0.1,0.4-0.4,0.6l-4.8,4.7l1.1,6.6c0,0,0,0.1,0,0.3c0,0.1,0,0.4-0.1,0.5
			c-0.1,0.1-0.3,0.3-0.4,0.3s-0.4,0-0.5-0.1l-6-3.2l-6,3.2c-0.3,0.1-0.4,0.1-0.5,0.1s-0.4-0.1-0.4-0.3c-0.1-0.1-0.1-0.3-0.1-0.5
			c0,0,0-0.1,0-0.3l1.1-6.6l-4.8-4.7c-0.3-0.3-0.4-0.5-0.4-0.6c0-0.4,0.3-0.5,0.8-0.6l6.8-1l3.1-6.1c0.1-0.4,0.4-0.5,0.6-0.5
			c0.3,0,0.5,0.1,0.6,0.5l3.1,6.1l6.8,1C581,431.2,581.3,431.4,581.3,431.7z"/>
	</g>
	<g>
		<path class="st3" d="M609.5,431.7c0,0.3-0.1,0.4-0.4,0.6l-4.8,4.7l1.1,6.6c0,0,0,0.1,0,0.3c0,0.1,0,0.4-0.1,0.5
			c-0.1,0.1-0.3,0.3-0.4,0.3s-0.4,0-0.5-0.1l-6-3.2l-6,3.2c-0.3,0.1-0.4,0.1-0.5,0.1c-0.1,0-0.4-0.1-0.4-0.3
			c-0.1-0.1-0.1-0.3-0.1-0.5c0,0,0-0.1,0-0.3l1.1-6.6l-4.8-4.7c-0.3-0.3-0.4-0.5-0.4-0.6c0-0.4,0.3-0.5,0.8-0.6l6.8-1l3.1-6.1
			c0.1-0.4,0.4-0.5,0.6-0.5c0.3,0,0.5,0.1,0.6,0.5l3.1,6.1l6.8,1C609.2,431.2,609.5,431.4,609.5,431.7z"/>
	</g>
</g>
</svg>
