<?xml version="1.0" encoding="utf-8"?>
<!-- Generator: Adobe Illustrator 16.0.0, SVG Export Plug-In . SVG Version: 6.00 Build 0)  -->
<!DOCTYPE svg PUBLIC "-//W3C//DTD SVG 1.1//EN" "http://www.w3.org/Graphics/SVG/1.1/DTD/svg11.dtd">
<svg version="1.1" id="Layer_1" xmlns="http://www.w3.org/2000/svg" xmlns:xlink="http://www.w3.org/1999/xlink" x="0px" y="0px"
	 width="609.904px" height="134.927px" viewBox="2.096 331.002 609.904 134.927"
	 enable-background="new 2.096 331.002 609.904 134.927" xml:space="preserve">
<g>
	<g>
		<path fill="#FFB600" d="M499.068,452.912c0,0.256-0.128,0.383-0.383,0.639l-4.849,4.721l1.148,6.636c0,0,0,0.128,0,0.256
			c0,0.127,0,0.383-0.128,0.51c-0.128,0.128-0.255,0.256-0.383,0.256s-0.383,0-0.511-0.128l-5.997-3.19l-5.998,3.19
			c-0.255,0.128-0.383,0.128-0.51,0.128c-0.128,0-0.383-0.128-0.383-0.256c-0.128-0.127-0.128-0.255-0.128-0.51c0,0,0-0.128,0-0.256
			l1.148-6.636l-4.849-4.721c-0.256-0.256-0.383-0.511-0.383-0.639c0-0.383,0.255-0.51,0.766-0.638l6.763-1.021l3.063-6.126
			c0.128-0.383,0.383-0.51,0.639-0.51c0.255,0,0.51,0.127,0.638,0.51l3.063,6.126l6.763,1.021
			C498.813,452.402,499.068,452.529,499.068,452.912z"/>
	</g>
	<g>
		<path fill="#FFB600" d="M527.27,452.912c0,0.256-0.128,0.383-0.383,0.639l-4.85,4.721l1.148,6.636c0,0,0,0.128,0,0.256
			c0,0.127,0,0.383-0.127,0.51c-0.128,0.128-0.256,0.256-0.383,0.256c-0.128,0-0.383,0-0.511-0.128l-5.997-3.19l-5.998,3.19
			c-0.255,0.128-0.383,0.128-0.51,0.128c-0.128,0-0.383-0.128-0.383-0.256c-0.128-0.127-0.128-0.255-0.128-0.51c0,0,0-0.128,0-0.256
			l1.148-6.636l-4.849-4.721c-0.256-0.256-0.383-0.511-0.383-0.639c0-0.383,0.255-0.51,0.766-0.638l6.763-1.021l3.063-6.126
			c0.128-0.383,0.383-0.51,0.638-0.51c0.256,0,0.511,0.127,0.639,0.51l3.063,6.126l6.763,1.021
			C527.014,452.402,527.27,452.529,527.27,452.912z"/>
	</g>
	<g>
		<path fill="#FFB600" d="M555.598,452.912c0,0.256-0.127,0.383-0.383,0.639l-4.849,4.721l1.148,6.636c0,0,0,0.128,0,0.256
			c0,0.127,0,0.383-0.128,0.51c-0.127,0.128-0.255,0.256-0.383,0.256c-0.127,0-0.383,0-0.51-0.128l-5.998-3.19l-5.997,3.19
			c-0.256,0.128-0.383,0.128-0.511,0.128s-0.383-0.128-0.383-0.256c-0.128-0.127-0.128-0.255-0.128-0.51c0,0,0-0.128,0-0.256
			l1.148-6.636l-4.849-4.721c-0.255-0.256-0.383-0.511-0.383-0.639c0-0.383,0.255-0.51,0.766-0.638l6.763-1.021l3.063-6.126
			c0.127-0.383,0.382-0.51,0.638-0.51c0.255,0,0.511,0.127,0.638,0.51l3.063,6.126l6.764,1.021
			C555.343,452.402,555.598,452.529,555.598,452.912z"/>
	</g>
	<g>
		<path fill="#FFB600" d="M583.799,452.912c0,0.256-0.128,0.383-0.383,0.639l-4.849,4.721l1.148,6.636c0,0,0,0.128,0,0.256
			c0,0.127,0,0.383-0.128,0.51c-0.128,0.128-0.255,0.256-0.383,0.256s-0.383,0-0.511-0.128l-5.997-3.19l-5.998,3.19
			c-0.255,0.128-0.382,0.128-0.51,0.128s-0.383-0.128-0.383-0.256c-0.128-0.127-0.128-0.255-0.128-0.51c0,0,0-0.128,0-0.256
			l1.148-6.636l-4.849-4.721c-0.256-0.256-0.383-0.511-0.383-0.639c0-0.383,0.255-0.51,0.766-0.638l6.763-1.021l3.063-6.126
			c0.128-0.383,0.383-0.51,0.639-0.51c0.255,0,0.51,0.127,0.638,0.51l3.063,6.126l6.764,1.021
			C583.544,452.402,583.799,452.529,583.799,452.912z"/>
	</g>
	<g>
		<path fill="#FFB600" d="M612,452.912c0,0.256-0.128,0.383-0.383,0.639l-4.849,4.721l1.148,6.636c0,0,0,0.128,0,0.256
			c0,0.127,0,0.383-0.128,0.51c-0.128,0.128-0.255,0.256-0.383,0.256s-0.383,0-0.511-0.128l-5.997-3.19l-5.998,3.19
			c-0.255,0.128-0.383,0.128-0.51,0.128c-0.128,0-0.383-0.128-0.383-0.256c-0.128-0.127-0.128-0.255-0.128-0.51c0,0,0-0.128,0-0.256
			l1.148-6.636l-4.849-4.721c-0.256-0.256-0.383-0.511-0.383-0.639c0-0.383,0.255-0.51,0.766-0.638l6.763-1.021l3.063-6.126
			c0.128-0.383,0.383-0.51,0.638-0.51c0.256,0,0.511,0.127,0.639,0.51l3.063,6.126l6.763,1.021
			C611.745,452.402,612,452.529,612,452.912z"/>
	</g>
</g>
<g>
	<path fill="#00B3F9" d="M2.096,332.754h59.712v18.104H23.703v19.125h32.411v17.958H23.703v21.899h39.565v18.104H2.096V332.754z"/>
	<path fill="#00B3F9" d="M83.124,372.319h-9.928v-15.914l11.096-0.876l2.482-19.271h17.812v19.271h17.374v16.79h-17.374v29.053
		c0,8.176,3.65,11.534,9.344,11.534c2.336,0,4.964-0.73,6.862-1.461l3.358,15.622c-3.796,1.168-9.052,2.628-16.06,2.628
		c-17.958,0-24.965-11.242-24.965-28.031V372.319z"/>
	<path fill="#00B3F9" d="M139.042,372.319h-9.928v-15.914l11.096-0.876l2.482-19.271h17.812v19.271h17.374v16.79h-17.374v29.053
		c0,8.176,3.65,11.534,9.344,11.534c2.336,0,4.964-0.73,6.862-1.461l3.358,15.622c-3.796,1.168-9.052,2.628-16.06,2.628
		c-17.958,0-24.965-11.242-24.965-28.031V372.319z"/>
	<path fill="#00B3F9" d="M230.289,401.227c6.717,5.84,15.477,9.928,23.359,9.928c8.906,0,13.286-3.504,13.286-9.198
		c0-5.986-5.401-7.884-13.724-11.388l-12.264-5.256c-9.928-3.942-19.271-12.118-19.271-25.987c0-15.768,14.162-28.323,33.871-28.323
		c10.949,0,22.483,4.38,30.659,12.556l-10.804,13.578c-6.277-4.818-12.264-7.592-19.855-7.592c-7.3,0-12.117,3.212-12.117,8.614
		c0,5.84,6.277,7.884,14.6,11.242l12.117,4.964c11.533,4.672,18.834,12.41,18.834,25.841c0,15.768-13.141,29.491-35.77,29.491
		c-12.41,0-25.549-4.672-35.331-13.724L230.289,401.227z"/>
	<path fill="#00B3F9" d="M303.287,355.529h17.52l1.461,9.344h0.584c5.985-5.986,12.409-11.096,21.898-11.096
		c10.221,0,16.352,4.38,20.002,12.118c6.424-6.57,13.14-12.118,22.775-12.118c15.621,0,22.629,11.096,22.629,29.199v44.967h-21.461
		V385.75c0-10.512-2.773-13.724-8.906-13.724c-3.649,0-7.737,2.336-12.409,7.008v48.909h-21.462V385.75
		c0-10.512-2.773-13.724-8.905-13.724c-3.504,0-7.737,2.336-12.264,7.008v48.909h-21.462V355.529z"/>
	<path fill="#00B3F9" d="M466.514,381.371c-0.438-6.424-3.65-10.512-11.388-10.512c-6.132,0-12.264,2.482-19.271,6.57l-7.592-14.162
		c9.198-5.548,19.563-9.49,30.951-9.49c18.542,0,28.761,10.512,28.761,32.703v41.463h-17.52l-1.605-7.445h-0.438
		c-6.133,5.401-12.994,9.197-21.17,9.197c-13.14,0-21.461-9.636-21.461-21.899C425.781,392.612,437.898,384.291,466.514,381.371z
		 M454.542,413.052c4.964,0,8.176-2.336,11.972-6.132v-12.702c-15.33,2.044-20.293,6.424-20.293,11.971
		C446.221,410.861,449.432,413.052,454.542,413.052z"/>
	<path fill="#00B3F9" d="M506.373,355.529h17.52l1.459,12.702h0.584c5.256-9.782,13.141-14.454,20.586-14.454
		c4.088,0,6.57,0.584,8.613,1.46l-3.504,18.542c-2.627-0.73-4.817-1.168-7.883-1.168c-5.402,0-12.118,3.504-15.914,13.286v42.047
		h-21.461V355.529z"/>
	<path fill="#00B3F9" d="M567.4,372.319h-9.928v-15.914l11.096-0.876l2.481-19.271h17.812v19.271h17.373v16.79h-17.373v29.053
		c0,8.176,3.65,11.534,9.344,11.534c2.336,0,4.964-0.73,6.861-1.461l3.358,15.622c-3.796,1.168-9.052,2.628-16.06,2.628
		c-17.957,0-24.965-11.242-24.965-28.031V372.319z"/>
</g>
</svg>
