<?xml version="1.0" encoding="utf-8"?>
<!-- Generator: Adobe Illustrator 19.0.0, SVG Export Plug-In . SVG Version: 6.00 Build 0)  -->
<svg version="1.1" id="Layer_1" xmlns="http://www.w3.org/2000/svg" xmlns:xlink="http://www.w3.org/1999/xlink" x="0px" y="0px"
	 width="616.1px" height="116.2px" viewBox="0 334.1 616.1 116.2" style="enable-background:new 0 334.1 616.1 116.2;"
	 xml:space="preserve">
<style type="text/css">
	.st0{fill:#FEFEFE;}
	.st1{fill:#D96262;}
	.st2{fill:#FEBF4E;}
</style>
<g>
	<g>
		<path class="st0" d="M308.1,450.2c-102.2,0-204.5,0-306.7,0c-1.1,0-1.2-0.3-1.2-1.3c0-37.9,0-75.8,0-113.6c0-1,0.3-1.1,1.1-1.1
			c204.5,0,409,0,613.6,0c1.1,0,1.2,0.3,1.2,1.3c0,37.9,0,75.8,0,113.6c0,1-0.3,1.1-1.1,1.1C512.7,450.2,410.4,450.2,308.1,450.2z
			 M266.4,368.3c0.3,0.5,0.4,0.7,0.5,0.9c7.1,13.2,14.2,26.5,21.3,39.7c0.4,0.7,0.7,1.3,1.2,1.9c1.5,1.7,3.4,1.7,5.4,1.7
			c2.5,0,4.2-1,5.4-3.2c5.6-10.5,11.2-21,16.8-31.5c1.6-3,3.2-6.1,4.9-9.1c0.1,1,0,1.9,0,2.9c0,16.3,0,32.6-0.1,49
			c0,0.7,0.2,1,1,0.9c3.3,0,6.6,0,10,0c0.9,0,1.1-0.3,1.1-1.1c0-5.3,0-10.6,0-15.8c0-18.3,0-36.6,0-54.8c0-1.1-0.3-1.4-1.4-1.4
			c-3.2,0.1-6.3,0-9.5,0c-1.9,0-3.3,0.7-4.2,2.5c-5.8,10.9-11.6,21.8-17.4,32.7c-2.5,4.6-5.2,9.1-7,14.2c-1-2.2-1.8-4.3-2.8-6.3
			c-7.3-13.6-14.6-27.1-21.9-40.7c-0.9-1.7-2.2-2.4-4-2.4c-3.3,0-6.6,0-10,0c-0.8,0-1,0.2-1,1c0.1,2.2,0,4.4,0,6.6
			c0,21.4,0,42.8,0,64.2c0,1.1,0.3,1.4,1.4,1.4c3.2-0.1,6.3-0.1,9.5,0c1,0,1.2-0.3,1.2-1.2c0-8.7,0-17.4,0-26
			C266.6,385.7,266.8,377.1,266.4,368.3z M124.3,384.7c0,11.8,0,23.7,0,35.5c0,1,0.3,1.2,1.2,1.2c3.8-0.1,7.5-0.1,11.3,0
			c1,0,1.2-0.3,1.2-1.3c0-9.8,0-19.6,0-29.4c0-1.1,0.3-1.3,1.3-1.3c10.5,0,21,0,31.6,0c1.1,0,1.5,0.3,1.5,1.4
			c-0.1,9.8,0,19.5-0.1,29.3c0,1,0.3,1.3,1.3,1.3c3.8-0.1,7.5-0.1,11.3,0c1,0,1.2-0.3,1.2-1.2c0-23.6,0-47.2,0-70.8
			c0-0.9-0.2-1.2-1.1-1.2c-3.8,0.1-7.5,0.1-11.3,0c-1.1,0-1.3,0.3-1.3,1.3c0,9.6,0,19.2,0,28.8c0,1-0.2,1.3-1.3,1.3
			c-10.6,0-21.1,0-31.7,0c-1.1,0-1.4-0.3-1.3-1.4c0-9.6,0-19.3,0-28.9c0-0.9-0.2-1.2-1.1-1.1c-3.8,0.1-7.5,0.1-11.3,0
			c-1.1,0-1.3,0.2-1.3,1.3C124.3,361.3,124.3,373,124.3,384.7z M436.2,384.8c0-11.7,0-23.4,0-35.2c0-1.2-0.3-1.5-1.5-1.4
			c-3.6,0.1-7.2,0.1-10.8,0c-1.1,0-1.4,0.3-1.4,1.4c0,9.6,0,19.2,0,28.8c0,1-0.2,1.3-1.2,1.3c-10.6,0-21.2,0-31.8,0
			c-1,0-1.2-0.3-1.2-1.3c0-9.6,0-19.3,0-28.9c0-1-0.2-1.3-1.2-1.3c-3.8,0.1-7.5,0.1-11.3,0c-1,0-1.2,0.3-1.2,1.3c0,23.5,0,47,0,70.5
			c0,1,0.2,1.4,1.3,1.4c3.7-0.1,7.4-0.1,11.2,0c1.1,0,1.3-0.3,1.3-1.4c0-9.8,0-19.5-0.1-29.3c0-1.1,0.4-1.4,1.4-1.3
			c10.5,0,21,0,31.4,0c1.2,0,1.5,0.3,1.5,1.4c0,9.7,0,19.4-0.1,29.2c0,1.1,0.3,1.4,1.4,1.4c3.6-0.1,7.2-0.1,10.8,0
			c1.2,0,1.5-0.3,1.5-1.4C436.2,408.3,436.2,396.5,436.2,384.8z M29.5,347.5c-2,0-3.9,0.1-5.8,0.5c-10.8,2-19,10.6-18.1,22.7
			c0.4,5.8,2.8,10.6,7.7,13.9c3.6,2.4,7.6,3.6,11.7,4.9c3,0.9,6.2,1.6,9,3.2c2.2,1.2,4.2,2.7,4.8,5.2c1.3,5.3-0.8,11.3-8,12.7
			c-5.3,1-10.2,0-14.8-2.9c-1.4-0.9-2.7-1.8-4.1-2.7c-2.2-1.3-4.2-0.9-5.6,1.3c-0.6,1-1.3,2-1.8,3c-0.6,1.1-2,2.2-1.7,3.4
			c0.4,1.1,1.8,1.9,2.9,2.6c7.7,5.6,16.3,7.7,25.7,6.5c5.3-0.7,10.1-2.8,13.9-6.6c4.2-4.2,6.2-9.3,6.6-15.1
			c0.5-7.9-2.3-13.9-9.3-17.8c-3.5-2-7.3-3.2-11.1-4.4c-3.3-1.1-6.6-2.1-9.6-3.9c-5.8-3.6-4.1-11.7,0.9-14c3.4-1.6,6.9-1.8,10.4-1.1
			c3.2,0.6,6,2.3,8.8,4c2.3,1.4,4.1,0.9,5.4-1.4c0.8-1.4,1.5-2.7,2.2-4.1c1.2-2.3,1.2-2.3-0.8-3.8C43,349.2,36.5,347.5,29.5,347.5z
			 M446.1,396.6c0,1.6,0.2,4.4,1,7.2c1.7,6.2,4.9,11.3,10.5,14.6c6.1,3.7,12.8,4.5,19.7,3.2c8.5-1.5,14.5-6.2,17.8-14.3
			c2.5-6.1,2.8-12.4,1.6-18.7c-1.9-9.5-7.3-16.1-16.8-18.8c-3.5-1-7.1-1.3-10.8-1c-7,0.6-13,3.2-17.4,8.8
			C447.6,382.7,446.1,388.7,446.1,396.6z M92.7,390.5c0-9.8,0-19.6,0-29.4c0-1.8-0.2-1.6,1.5-1.6c6.4,0,12.9,0,19.3,0
			c0.9,0,1.3-0.1,1.2-1.2c-0.1-3-0.1-6,0-9c0-0.9-0.3-1.1-1.1-1.1c-18.5,0-37,0-55.4,0c-0.8,0-1.1,0.2-1.1,1c0.1,3,0.1,6.1,0,9.1
			c0,0.9,0.3,1.1,1.1,1.1c6.4,0,12.9,0,19.3,0c1.8,0,1.6-0.2,1.6,1.6c0,19.6,0,39.3,0,58.9c0,1.2,0.3,1.5,1.5,1.4
			c3.6-0.1,7.1-0.1,10.7,0c1.1,0,1.5-0.3,1.5-1.4C92.7,410.1,92.7,400.3,92.7,390.5z M569.3,397c5.1,0,10.2,0,15.2,0
			c2.2,0,2.8-0.5,3.1-2.7c0.4-2.6,0.2-5.1-0.3-7.6c-1.4-7.6-5.3-13.3-12.6-16.3c-4-1.6-8.3-2.1-12.6-1.6c-9.2,1.1-16,5.7-19.6,14.3
			c-3.5,8.3-3,16.7,0.5,24.9c3,7,8.4,11.3,15.8,13.2c6,1.5,11.9,1.1,17.7-0.7c3.8-1.2,7.1-3.2,9.9-6c0.6-0.6,0.7-1.1,0.1-1.8
			c-1-1.2-2-2.5-3-3.8c-0.7-0.9-1.7-1.2-2.8-1.1c-0.9,0.1-1.7,0.5-2.4,0.9c-3.4,2-6.9,3.5-11,3.6c-6.6,0.1-11.4-3.1-13.4-9.4
			c-0.5-1.6-0.8-3.3-1-4.9c-0.1-0.9,0-1.2,1-1.2C559,397,564.1,397,569.3,397z M202.1,384.8c0,11.8,0,23.6,0,35.4
			c0,0.8,0.1,1.2,1.1,1.2c13.6,0,27.2,0,40.8,0c0.9,0,1.1-0.3,1-1.1c0-3-0.1-5.9,0-8.9c0-1-0.2-1.3-1.3-1.3c-8.8,0-17.6,0-26.4,0
			c-1.7,0-1.5,0.2-1.5-1.5c0-19.6,0-39.3,0-58.9c0-1-0.2-1.4-1.4-1.4c-3.7,0.1-7.4,0.1-11,0c-1,0-1.3,0.2-1.3,1.3
			C202.1,361.3,202.1,373.1,202.1,384.8z M509.2,394.8C509.3,394.8,509.3,394.8,509.2,394.8c0,4.9-0.1,9.8,0.1,14.8
			c0.1,4.3,1.8,7.9,5.5,10.4c2.8,1.9,6,2.3,9.3,2.2c4.4-0.2,8.4-1.4,12-4c0.4-0.3,0.9-0.5,0.5-1.1c-1.2-1.9-2.4-3.9-3.6-5.8
			c-0.7-1-1.5-1.1-2.6-0.5c-0.9,0.5-1.7,1-2.7,1.2c-3.2,0.8-5.6-1-5.8-4.3c0-0.3,0-0.6,0-1c0-8.9,0-17.8,0-26.6
			c0-0.9,0.2-1.1,1.1-1.1c3.8,0,7.7,0,11.5,0c0.9,0,1.3-0.2,1.3-1.2c-0.1-2.2-0.1-4.5,0-6.7c0-0.9-0.3-1.2-1.2-1.1
			c-3.8,0-7.5,0-11.3,0c-1.1,0-1.5-0.2-1.5-1.4c0.1-4.6,0-9.2,0.1-13.8c0-0.9-0.3-1.2-1.2-1.1c-1.7,0.1-3.4,0-5.2,0
			c-1.9,0-2.7,0.7-3.1,2.5c-0.8,4.2-1.6,8.4-2.3,12.6c-0.1,0.8-0.4,1.2-1.3,1.3c-2.1,0.3-4.2,0.6-6.3,1c-0.5,0.1-1,0.1-1,0.9
			c0.1,1.5,0,3,0,4.4c0.1,1.6,1,2.5,2.6,2.5c1.3,0,2.6,0.1,3.8,0c1-0.1,1.4,0.2,1.3,1.3C509.2,385.1,509.2,389.9,509.2,394.8z
			 M597.2,383.7c0,12.2,0,24.3,0,36.5c0,0.9,0.2,1.2,1.2,1.2c3.4-0.1,6.9-0.1,10.3,0c0.9,0,1.1-0.3,1.1-1.2c0-24.3,0-48.6,0-72.9
			c0-0.8-0.2-1.1-1.1-1.1c-3.4,0-6.9,0.1-10.3,0c-1,0-1.2,0.3-1.2,1.3C597.2,359.6,597.2,371.7,597.2,383.7z M536.8,440
			c-0.4,2.2-0.7,4.2-1.1,6.1c-0.1,0.4-0.2,0.9,0.3,1.2c0.4,0.2,0.8,0,1.1-0.2c1.4-0.8,2.9-1.5,4.3-2.3c0.9-0.5,1.6-0.6,2.5,0
			c1.4,0.9,2.9,1.6,4.3,2.3c0.4,0.2,0.8,0.5,1.2,0.2c0.4-0.3,0.3-0.8,0.2-1.2c-0.3-1.8-0.6-3.6-0.9-5.4c-0.2-0.7,0.1-1.1,0.5-1.5
			c1.3-1.2,2.5-2.4,3.8-3.7c0.3-0.3,1-0.6,0.7-1.3c-0.2-0.6-0.9-0.5-1.4-0.6c-1.7-0.3-3.3-0.5-5-0.7c-0.7-0.1-1-0.4-1.3-1
			c-0.8-1.7-1.6-3.3-2.5-4.9c-0.2-0.4-0.3-0.9-0.9-0.8c-0.5,0-0.6,0.5-0.8,0.8c-0.8,1.7-1.7,3.3-2.5,5c-0.3,0.6-0.6,0.8-1.2,0.9
			c-1.9,0.2-3.7,0.6-5.6,0.8c-0.4,0.1-0.9,0-1,0.5c-0.2,0.5,0.2,0.8,0.5,1.1c1.3,1.3,2.6,2.6,3.9,3.9
			C536.5,439.4,536.9,439.7,536.8,440z M593.1,440.3c-0.3,1.8-0.7,3.6-1,5.4c-0.1,0.5-0.3,1.1,0.2,1.5c0.5,0.4,1,0,1.4-0.3
			c1.4-0.7,2.9-1.4,4.2-2.3c0.9-0.5,1.6-0.5,2.4,0c1.4,0.8,2.9,1.6,4.3,2.3c0.4,0.2,0.8,0.5,1.2,0.2c0.4-0.3,0.3-0.8,0.2-1.2
			c-0.3-1.8-0.6-3.6-0.9-5.4c-0.2-0.7,0.1-1.1,0.5-1.5c1.3-1.2,2.5-2.4,3.8-3.7c0.3-0.3,1-0.6,0.7-1.3c-0.2-0.6-0.9-0.5-1.4-0.6
			c-1.6-0.3-3.1-0.6-4.7-0.7c-0.9-0.1-1.3-0.5-1.7-1.2c-0.8-1.6-1.6-3.2-2.4-4.8c-0.2-0.3-0.3-0.7-0.7-0.7c-0.5,0-0.7,0.3-0.8,0.7
			c-0.8,1.7-1.7,3.4-2.6,5.1c-0.3,0.6-0.6,0.8-1.3,0.9c-1.9,0.2-3.7,0.6-5.6,0.8c-0.4,0.1-0.9,0-1,0.5c-0.2,0.5,0.2,0.8,0.5,1.1
			c1.3,1.3,2.6,2.6,3.9,3.9C592.9,439.4,593.3,439.7,593.1,440.3z M507.4,446c-0.1,1.3,0.3,1.6,1.3,1c1.6-0.8,3.2-1.7,4.7-2.5
			c0.7-0.4,1.2-0.4,1.9,0c1.5,0.9,3.1,1.7,4.6,2.5c0.4,0.2,0.8,0.5,1.2,0.2c0.4-0.3,0.3-0.8,0.2-1.2c-0.3-1.8-0.5-3.5-0.9-5.3
			c-0.2-0.8,0-1.2,0.5-1.7c1.3-1.2,2.6-2.5,3.9-3.8c0.3-0.3,0.8-0.6,0.6-1.1c-0.1-0.6-0.7-0.6-1.2-0.6c-1.7-0.3-3.4-0.6-5.1-0.7
			c-0.8-0.1-1.2-0.5-1.5-1.1c-0.8-1.7-1.6-3.3-2.5-4.9c-0.2-0.3-0.3-0.7-0.7-0.7c-0.5,0-0.7,0.4-0.8,0.7c-0.9,1.7-1.7,3.4-2.6,5.1
			c-0.3,0.6-0.6,0.8-1.3,0.9c-1.9,0.2-3.8,0.5-5.7,0.9c-1.2,0.2-1.3,0.6-0.4,1.5c1.2,1.2,2.4,2.5,3.7,3.6c0.8,0.7,1,1.5,0.8,2.4
			C507.9,442.8,507.7,444.5,507.4,446z M479.1,446.4c0,0.9,0.5,1.1,1.3,0.7c1.6-0.8,3.1-1.6,4.6-2.5c0.8-0.5,1.5-0.5,2.3,0
			c1.3,0.8,2.7,1.5,4.1,2.2c0.4,0.2,0.9,0.7,1.4,0.3c0.6-0.4,0.3-1,0.2-1.6c-0.2-1.6-0.5-3.1-0.8-4.7c-0.2-0.8,0-1.5,0.7-2.1
			c1.3-1.1,2.5-2.4,3.7-3.5c0.3-0.3,0.7-0.6,0.6-1.1c-0.1-0.6-0.6-0.6-1.1-0.6c-1.8-0.3-3.5-0.6-5.3-0.8c-0.7-0.1-1-0.4-1.2-0.9
			c-0.8-1.6-1.5-3.2-2.4-4.7c-0.2-0.4-0.3-1.1-0.9-1.1c-0.7,0-0.8,0.7-1,1.2c-0.8,1.5-1.6,3.1-2.3,4.6c-0.3,0.6-0.6,0.9-1.3,1
			c-1.9,0.2-3.7,0.6-5.6,0.9c-0.4,0.1-0.8,0.1-1,0.6c-0.1,0.5,0.2,0.7,0.5,1c1.3,1.2,2.6,2.5,3.9,3.7c0.6,0.5,0.7,1,0.6,1.8
			C479.7,442.6,479.4,444.5,479.1,446.4z M563.9,446.5c0,0.8,0.4,1.1,1.3,0.6c1.6-0.8,3.2-1.6,4.8-2.5c0.7-0.4,1.3-0.4,2,0
			c1.5,0.9,3,1.6,4.5,2.4c0.4,0.2,0.7,0.6,1.2,0.2c0.4-0.3,0.3-0.8,0.2-1.2c-0.3-1.7-0.6-3.5-0.9-5.2c-0.2-0.8,0-1.4,0.6-1.9
			c1.3-1.1,2.4-2.3,3.6-3.5c0.4-0.3,0.9-0.6,0.7-1.3c-0.2-0.7-0.9-0.6-1.4-0.7c-1.6-0.3-3.3-0.6-5-0.7c-0.7-0.1-1-0.4-1.2-0.9
			c-0.8-1.7-1.7-3.4-2.5-5c-0.2-0.3-0.3-0.8-0.8-0.8c-0.5,0-0.6,0.4-0.8,0.8c-0.8,1.7-1.7,3.3-2.5,5c-0.3,0.6-0.6,0.9-1.3,1
			c-1.8,0.2-3.6,0.5-5.4,0.8c-0.4,0.1-0.9,0-1.1,0.6c-0.1,0.5,0.3,0.8,0.6,1.1c1.3,1.2,2.5,2.5,3.8,3.6c0.6,0.5,0.7,1,0.6,1.8
			C564.5,442.6,564.2,444.5,563.9,446.5z"/>
		<path class="st1" d="M266.4,368.3c0.4,8.8,0.2,17.3,0.2,25.8c0,8.7,0,17.4,0,26c0,0.9-0.2,1.2-1.2,1.2c-3.2-0.1-6.3-0.1-9.5,0
			c-1.1,0-1.4-0.3-1.4-1.4c0-21.4,0-42.8,0-64.2c0-2.2,0-4.4,0-6.6c0-0.8,0.2-1,1-1c3.3,0,6.6,0,10,0c1.8,0,3.1,0.7,4,2.4
			c7.3,13.6,14.6,27.1,21.9,40.7c1.1,2,1.9,4.1,2.8,6.3c1.8-5.1,4.5-9.6,7-14.2c5.8-10.9,11.6-21.8,17.4-32.7
			c0.9-1.8,2.3-2.5,4.2-2.5c3.2,0,6.3,0.1,9.5,0c1.1,0,1.4,0.2,1.4,1.4c0,18.3,0,36.6,0,54.8c0,5.3,0,10.6,0,15.8
			c0,0.9-0.2,1.2-1.1,1.1c-3.3-0.1-6.6,0-10,0c-0.7,0-1-0.2-1-0.9c0-16.3,0-32.6,0.1-49c0-0.9,0.1-1.9,0-2.9c-1.6,3-3.2,6.1-4.9,9.1
			c-5.6,10.5-11.2,21-16.8,31.5c-1.2,2.2-2.9,3.3-5.4,3.2c-2,0-3.9,0-5.4-1.7c-0.5-0.6-0.9-1.2-1.2-1.9
			c-7.1-13.2-14.2-26.5-21.3-39.7C266.8,369,266.7,368.8,266.4,368.3z"/>
		<path class="st1" d="M124.3,384.7c0-11.7,0-23.4,0-35.2c0-1.1,0.3-1.3,1.3-1.3c3.8,0.1,7.5,0.1,11.3,0c0.9,0,1.1,0.3,1.1,1.1
			c0,9.6,0,19.3,0,28.9c0,1.1,0.2,1.4,1.3,1.4c10.6,0,21.1,0,31.7,0c1.1,0,1.3-0.3,1.3-1.3c0-9.6,0-19.2,0-28.8c0-1,0.2-1.4,1.3-1.3
			c3.8,0.1,7.5,0.1,11.3,0c0.9,0,1.1,0.3,1.1,1.2c0,23.6,0,47.2,0,70.8c0,0.9-0.2,1.2-1.2,1.2c-3.8-0.1-7.5-0.1-11.3,0
			c-1,0-1.3-0.2-1.3-1.3c0-9.8,0-19.5,0.1-29.3c0-1.2-0.3-1.4-1.5-1.4c-10.5,0-21,0-31.6,0c-1,0-1.3,0.2-1.3,1.3
			c0,9.8,0,19.6,0,29.4c0,1-0.2,1.3-1.2,1.3c-3.8-0.1-7.5-0.1-11.3,0c-0.9,0-1.2-0.2-1.2-1.2C124.3,408.4,124.3,396.5,124.3,384.7z"
			/>
		<path class="st1" d="M436.2,384.8c0,11.7,0,23.4,0,35.2c0,1.2-0.3,1.5-1.5,1.4c-3.6-0.1-7.2-0.1-10.8,0c-1.1,0-1.4-0.2-1.4-1.4
			c0-9.7,0-19.4,0.1-29.2c0-1.2-0.3-1.4-1.5-1.4c-10.5,0-21,0-31.4,0c-1,0-1.4,0.2-1.4,1.3c0.1,9.8,0,19.5,0.1,29.3
			c0,1-0.2,1.4-1.3,1.4c-3.7-0.1-7.4-0.1-11.2,0c-1.1,0-1.3-0.4-1.3-1.4c0-23.5,0-47,0-70.5c0-1,0.2-1.3,1.2-1.3
			c3.8,0.1,7.5,0.1,11.3,0c1,0,1.2,0.3,1.2,1.3c0,9.6,0,19.3,0,28.9c0,1,0.2,1.3,1.2,1.3c10.6,0,21.2,0,31.8,0c1,0,1.2-0.3,1.2-1.3
			c0-9.6,0-19.2,0-28.8c0-1.1,0.3-1.4,1.4-1.4c3.6,0.1,7.2,0.1,10.8,0c1.1,0,1.5,0.3,1.5,1.4C436.1,361.4,436.2,373.1,436.2,384.8z"
			/>
		<path class="st1" d="M29.5,347.5c7,0,13.5,1.7,19.2,6c2,1.5,2,1.5,0.8,3.8c-0.7,1.4-1.4,2.8-2.2,4.1c-1.3,2.4-3,2.9-5.4,1.4
			c-2.8-1.7-5.6-3.4-8.8-4c-3.6-0.6-7-0.5-10.4,1.1c-4.9,2.3-6.7,10.4-0.9,14c3,1.8,6.3,2.9,9.6,3.9c3.8,1.2,7.6,2.5,11.1,4.4
			c7,3.9,9.8,9.9,9.3,17.8c-0.4,5.8-2.4,11-6.6,15.1c-3.9,3.8-8.6,5.9-13.9,6.6c-9.4,1.2-18-1-25.7-6.5c-1.1-0.8-2.5-1.5-2.9-2.6
			c-0.4-1.2,1.1-2.2,1.7-3.4c0.6-1,1.2-2,1.8-3c1.4-2.1,3.4-2.6,5.6-1.3c1.4,0.9,2.7,1.8,4.1,2.7c4.6,2.9,9.5,3.9,14.8,2.9
			c7.2-1.4,9.3-7.4,8-12.7c-0.6-2.5-2.6-4-4.8-5.2c-2.8-1.5-6-2.2-9-3.2c-4-1.3-8.1-2.5-11.7-4.9c-4.9-3.3-7.3-8.1-7.7-13.9
			C4.6,358.6,12.9,350,23.7,348C25.6,347.6,27.6,347.5,29.5,347.5z"/>
		<path class="st1" d="M446.1,396.6c0-7.8,1.5-13.9,5.6-19c4.4-5.6,10.4-8.2,17.4-8.8c3.7-0.3,7.3,0,10.8,1
			c9.5,2.8,15,9.3,16.8,18.8c1.2,6.3,0.9,12.7-1.6,18.7c-3.3,8.1-9.4,12.7-17.8,14.3c-6.9,1.3-13.6,0.5-19.7-3.2
			c-5.6-3.3-8.8-8.4-10.5-14.6C446.3,401,446.1,398.1,446.1,396.6z M484.5,396.5c0-3.8-0.3-6.4-1-9c-1-3.7-2.9-6.7-6.6-8.3
			c-2-0.9-4.1-0.7-6.2-0.7c-3.8-0.1-6.7,1.5-8.8,4.7c-1.6,2.5-2.3,5.2-2.6,8.1c-0.6,4.5-0.3,8.9,1.1,13.2c1.4,4.2,4.2,6.9,8.6,7.7
			c1.6,0.3,3.1,0.4,4.7,0.2c4.3-0.5,7.3-2.6,9-6.6C484.1,402.5,484.4,399,484.5,396.5z"/>
		<path class="st1" d="M92.7,390.5c0,9.8,0,19.7,0,29.5c0,1.2-0.3,1.5-1.5,1.4c-3.6-0.1-7.1-0.1-10.7,0c-1.1,0-1.5-0.2-1.5-1.4
			c0-19.6,0-39.3,0-58.9c0-1.8,0.2-1.6-1.6-1.6c-6.4,0-12.9,0-19.3,0c-0.9,0-1.2-0.2-1.1-1.1c0.1-3,0.1-6.1,0-9.1c0-0.9,0.3-1,1.1-1
			c18.5,0,37,0,55.4,0c0.9,0,1.2,0.2,1.1,1.1c-0.1,3-0.1,6,0,9c0,1-0.3,1.2-1.2,1.2c-6.4,0-12.9,0-19.3,0c-1.7,0-1.5-0.2-1.5,1.6
			C92.7,370.9,92.7,380.7,92.7,390.5z"/>
		<path class="st1" d="M569.3,397c-5.2,0-10.3,0-15.5,0c-1,0-1.1,0.3-1,1.2c0.3,1.7,0.5,3.3,1,4.9c2.1,6.3,6.8,9.5,13.4,9.4
			c4.1-0.1,7.6-1.6,11-3.6c0.8-0.4,1.6-0.8,2.4-0.9c1.1-0.1,2,0.1,2.8,1.1c1,1.3,1.9,2.5,3,3.8c0.6,0.7,0.5,1.1-0.1,1.8
			c-2.8,2.9-6.1,4.8-9.9,6c-5.8,1.8-11.8,2.2-17.7,0.7c-7.4-1.8-12.8-6.2-15.8-13.2c-3.5-8.2-4-16.6-0.5-24.9
			c3.6-8.6,10.4-13.2,19.6-14.3c4.3-0.5,8.6-0.1,12.6,1.6c7.3,3,11.2,8.7,12.6,16.3c0.5,2.5,0.7,5.1,0.3,7.6
			c-0.3,2.2-0.9,2.6-3.1,2.7C579.4,397,574.4,397,569.3,397z M564.7,389.5c3.6,0,7.1,0,10.7,0c0.8,0,1.2-0.2,1.1-1
			c-0.2-2-0.7-4-1.7-5.8c-3.6-6.7-15.1-6.5-19.1-0.4c-1.2,1.9-2,4-2.5,6.2c-0.2,1,0.1,1.1,0.9,1
			C557.6,389.4,561.2,389.5,564.7,389.5z"/>
		<path class="st1" d="M202.1,384.8c0-11.8,0-23.5,0-35.3c0-1.1,0.3-1.3,1.3-1.3c3.7,0.1,7.4,0.1,11,0c1.2,0,1.4,0.4,1.4,1.4
			c0,19.6,0,39.3,0,58.9c0,1.7-0.2,1.5,1.5,1.5c8.8,0,17.6,0,26.4,0c1.1,0,1.3,0.3,1.3,1.3c-0.1,3,0,5.9,0,8.9c0,0.8-0.2,1.1-1,1.1
			c-13.6,0-27.2,0-40.8,0c-1,0-1.1-0.4-1.1-1.2C202.1,408.4,202.1,396.6,202.1,384.8z"/>
		<path class="st1" d="M509.2,394.8c0-4.9,0-9.8,0-14.6c0-1.1-0.3-1.4-1.3-1.3c-1.3,0.1-2.6,0-3.8,0c-1.6,0-2.5-0.9-2.6-2.5
			c-0.1-1.5,0-3,0-4.4c0-0.8,0.5-0.8,1-0.9c2.1-0.3,4.2-0.7,6.3-1c0.9-0.1,1.2-0.5,1.3-1.3c0.7-4.2,1.5-8.4,2.3-12.6
			c0.3-1.8,1.2-2.5,3.1-2.5c1.7,0,3.4,0,5.2,0c0.9,0,1.2,0.2,1.2,1.1c0,4.6,0,9.2-0.1,13.8c0,1.2,0.4,1.4,1.5,1.4
			c3.8-0.1,7.5,0,11.3,0c0.9,0,1.2,0.2,1.2,1.1c-0.1,2.2-0.1,4.5,0,6.7c0,1-0.4,1.2-1.3,1.2c-3.8,0-7.7,0-11.5,0
			c-0.9,0-1.1,0.2-1.1,1.1c0,8.9,0,17.8,0,26.6c0,0.3,0,0.6,0,1c0.2,3.3,2.6,5,5.8,4.3c1-0.2,1.9-0.7,2.7-1.2
			c1.1-0.6,1.9-0.5,2.6,0.5c1.3,1.9,2.4,3.9,3.6,5.8c0.4,0.6-0.1,0.8-0.5,1.1c-3.6,2.6-7.6,3.8-12,4c-3.3,0.1-6.5-0.3-9.3-2.2
			c-3.7-2.5-5.3-6.1-5.5-10.4C509.1,404.7,509.3,399.7,509.2,394.8C509.3,394.8,509.3,394.8,509.2,394.8z"/>
		<path class="st1" d="M597.2,383.7c0-12.1,0-24.1,0-36.2c0-1,0.2-1.3,1.2-1.3c3.4,0.1,6.9,0,10.3,0c0.8,0,1.1,0.2,1.1,1.1
			c0,24.3,0,48.6,0,72.9c0,0.9-0.2,1.2-1.1,1.2c-3.4-0.1-6.9-0.1-10.3,0c-1,0-1.2-0.3-1.2-1.2C597.2,408,597.2,395.9,597.2,383.7z"
			/>
		<path class="st2" d="M536.8,440c0.1-0.3-0.3-0.6-0.6-0.9c-1.3-1.3-2.6-2.6-3.9-3.9c-0.3-0.3-0.7-0.6-0.5-1.1
			c0.2-0.4,0.6-0.4,1-0.5c1.9-0.3,3.7-0.6,5.6-0.8c0.7-0.1,1-0.4,1.2-0.9c0.8-1.7,1.7-3.4,2.5-5c0.2-0.3,0.3-0.8,0.8-0.8
			c0.6,0,0.7,0.4,0.9,0.8c0.8,1.6,1.7,3.3,2.5,4.9c0.3,0.6,0.6,0.9,1.3,1c1.7,0.2,3.3,0.5,5,0.7c0.5,0.1,1.1,0,1.4,0.6
			c0.3,0.6-0.4,0.9-0.7,1.3c-1.2,1.2-2.5,2.5-3.8,3.7c-0.5,0.4-0.7,0.8-0.5,1.5c0.4,1.8,0.6,3.6,0.9,5.4c0.1,0.4,0.2,0.9-0.2,1.2
			c-0.4,0.3-0.8,0-1.2-0.2c-1.4-0.8-2.9-1.5-4.3-2.3c-0.9-0.6-1.6-0.5-2.5,0c-1.4,0.8-2.9,1.6-4.3,2.3c-0.3,0.2-0.7,0.5-1.1,0.2
			c-0.5-0.3-0.4-0.8-0.3-1.2C536,444.1,536.4,442.2,536.8,440z"/>
		<path class="st2" d="M593.1,440.3c0.1-0.6-0.2-0.9-0.6-1.2c-1.3-1.3-2.6-2.6-3.9-3.9c-0.3-0.3-0.7-0.6-0.5-1.1
			c0.2-0.4,0.6-0.4,1-0.5c1.9-0.3,3.7-0.6,5.6-0.8c0.6-0.1,1-0.3,1.3-0.9c0.8-1.7,1.7-3.4,2.6-5.1c0.2-0.4,0.3-0.8,0.8-0.7
			c0.4,0,0.6,0.4,0.7,0.7c0.8,1.6,1.6,3.2,2.4,4.8c0.4,0.8,0.8,1.2,1.7,1.2c1.6,0.1,3.2,0.4,4.7,0.7c0.5,0.1,1.1,0,1.4,0.6
			c0.3,0.6-0.3,0.9-0.7,1.3c-1.2,1.2-2.5,2.5-3.8,3.7c-0.5,0.4-0.7,0.8-0.5,1.5c0.4,1.8,0.6,3.6,0.9,5.4c0.1,0.4,0.2,0.9-0.2,1.2
			c-0.4,0.3-0.8,0-1.2-0.2c-1.4-0.8-2.9-1.5-4.3-2.3c-0.9-0.5-1.5-0.6-2.4,0c-1.4,0.8-2.8,1.5-4.2,2.3c-0.4,0.2-0.9,0.7-1.4,0.3
			c-0.5-0.4-0.3-1-0.2-1.5C592.5,443.9,592.8,442.1,593.1,440.3z"/>
		<path class="st2" d="M507.4,446c0.3-1.5,0.6-3.2,0.9-4.9c0.2-1,0.1-1.7-0.8-2.4c-1.3-1.1-2.5-2.4-3.7-3.6
			c-0.8-0.8-0.7-1.3,0.4-1.5c1.9-0.3,3.8-0.6,5.7-0.9c0.6-0.1,1-0.3,1.3-0.9c0.8-1.7,1.7-3.4,2.6-5.1c0.2-0.4,0.3-0.8,0.8-0.7
			c0.4,0,0.6,0.4,0.7,0.7c0.8,1.6,1.7,3.3,2.5,4.9c0.3,0.7,0.7,1,1.5,1.1c1.7,0.2,3.4,0.5,5.1,0.7c0.4,0.1,1,0,1.2,0.6
			c0.1,0.5-0.3,0.8-0.6,1.1c-1.3,1.3-2.6,2.5-3.9,3.8c-0.5,0.5-0.7,0.9-0.5,1.7c0.4,1.7,0.6,3.5,0.9,5.3c0.1,0.5,0.2,0.9-0.2,1.2
			c-0.4,0.4-0.8,0-1.2-0.2c-1.6-0.8-3.1-1.6-4.6-2.5c-0.7-0.4-1.2-0.4-1.9,0c-1.6,0.9-3.2,1.7-4.7,2.5
			C507.7,447.6,507.3,447.3,507.4,446z"/>
		<path class="st2" d="M479.1,446.4c0.3-1.9,0.6-3.8,1-5.7c0.2-0.8,0-1.3-0.6-1.8c-1.3-1.2-2.6-2.5-3.9-3.7c-0.3-0.3-0.6-0.6-0.5-1
			c0.1-0.5,0.6-0.5,1-0.6c1.8-0.3,3.7-0.6,5.6-0.9c0.7-0.1,1-0.4,1.3-1c0.7-1.5,1.5-3.1,2.3-4.6c0.2-0.5,0.3-1.2,1-1.2
			c0.7,0,0.7,0.7,0.9,1.1c0.8,1.6,1.6,3.1,2.4,4.7c0.3,0.5,0.6,0.8,1.2,0.9c1.8,0.2,3.6,0.5,5.3,0.8c0.4,0.1,0.9,0,1.1,0.6
			c0.1,0.5-0.3,0.8-0.6,1.1c-1.2,1.2-2.4,2.4-3.7,3.5c-0.7,0.6-0.8,1.3-0.7,2.1c0.3,1.6,0.6,3.1,0.8,4.7c0.1,0.5,0.3,1.2-0.2,1.6
			c-0.5,0.4-1-0.1-1.4-0.3c-1.4-0.7-2.8-1.4-4.1-2.2c-0.8-0.5-1.5-0.5-2.3,0c-1.5,0.9-3.1,1.7-4.6,2.5
			C479.6,447.5,479.2,447.3,479.1,446.4z"/>
		<path class="st2" d="M563.9,446.5c0.3-2,0.6-3.9,1-5.8c0.2-0.8,0-1.3-0.6-1.8c-1.3-1.2-2.5-2.4-3.8-3.6c-0.3-0.3-0.7-0.6-0.6-1.1
			c0.1-0.6,0.7-0.5,1.1-0.6c1.8-0.3,3.6-0.6,5.4-0.8c0.7-0.1,1-0.4,1.3-1c0.8-1.7,1.7-3.4,2.5-5c0.2-0.4,0.3-0.8,0.8-0.8
			c0.5,0,0.6,0.4,0.8,0.8c0.8,1.7,1.7,3.4,2.5,5c0.3,0.5,0.6,0.8,1.2,0.9c1.7,0.2,3.3,0.4,5,0.7c0.5,0.1,1.2,0,1.4,0.7
			c0.2,0.6-0.4,0.9-0.7,1.3c-1.2,1.2-2.4,2.4-3.6,3.5c-0.6,0.6-0.7,1.1-0.6,1.9c0.3,1.7,0.6,3.5,0.9,5.2c0.1,0.4,0.2,0.9-0.2,1.2
			c-0.5,0.3-0.8,0-1.2-0.2c-1.5-0.8-3.1-1.6-4.5-2.4c-0.7-0.4-1.3-0.4-2,0c-1.6,0.9-3.2,1.7-4.8,2.5
			C564.3,447.6,563.8,447.3,563.9,446.5z"/>
		<path class="st0" d="M484.5,396.5c-0.1,2.5-0.4,6-1.8,9.3c-1.7,4-4.7,6-9,6.6c-1.6,0.2-3.2,0.1-4.7-0.2c-4.5-0.8-7.2-3.6-8.6-7.7
			c-1.4-4.3-1.7-8.7-1.1-13.2c0.4-2.9,1-5.7,2.6-8.1c2.1-3.2,5-4.8,8.8-4.7c2.1,0,4.2-0.1,6.2,0.7c3.7,1.6,5.6,4.6,6.6,8.3
			C484.2,390.1,484.5,392.7,484.5,396.5z"/>
		<path class="st0" d="M564.7,389.5c-3.6,0-7.1,0-10.7,0c-0.8,0-1.1-0.1-0.9-1c0.5-2.2,1.3-4.3,2.5-6.2c4-6.1,15.5-6.3,19.1,0.4
			c1,1.8,1.5,3.8,1.7,5.8c0.1,0.9-0.2,1.1-1.1,1C571.8,389.4,568.3,389.5,564.7,389.5z"/>
	</g>
</g>
</svg>
