<?xml version="1.0" encoding="utf-8"?>
<!-- Generator: Adobe Illustrator 19.0.0, SVG Export Plug-In . SVG Version: 6.00 Build 0)  -->
<svg version="1.1" id="Layer_1" xmlns="http://www.w3.org/2000/svg" xmlns:xlink="http://www.w3.org/1999/xlink" x="0px" y="0px"
	 width="615.7px" height="115.8px" viewBox="3.4 -131 615.7 115.8" style="enable-background:new 3.4 -131 615.7 115.8;"
	 xml:space="preserve">
<style type="text/css">
	.st0{fill:#FE5E55;}
	.st1{fill:#FEAA02;}
</style>
<g id="XMLID_2_">
	<path id="XMLID_105_" class="st0" d="M297.2-68c7.7-15.7,16.3-30.9,24.3-46.3c1-2,2.4-3,4.7-2.9c3.1,0.1,6.2,0.1,9.2,0
		c1,0,1.4,0.2,1.3,1.3c-0.1,3.8,0,7.7,0,11.5c0,19.6,0,39.3,0,58.9c0,1.1-0.2,1.4-1.4,1.4c-3.2-0.1-6.5,0-9.7,0c-0.7,0-1-0.1-1-0.9
		c0-16.3,0-32.6,0.1-49c0-0.9,0.1-1.8,0.2-2.8c-0.5,0.2-0.6,0.6-0.7,0.9c-7,13.1-14,26.3-21,39.5c-1.2,2.3-2.9,3.6-5.6,3.4
		c-0.4,0-0.8,0-1.2,0c-2.3,0.1-4-1-5-3c-7.1-13.2-14.2-26.5-21.3-39.7c-0.2-0.4-0.4-0.7-0.9-1.1c0.1,1.2,0.2,2.4,0.2,3.6
		c0,16,0,32.1,0.1,48.1c0,0.8-0.3,0.9-1,0.9c-3.3,0-6.6-0.1-10,0c-1,0-1.2-0.3-1.2-1.2c0-16.5,0-33,0-49.6c0-7,0-14.1,0-21.1
		c0-0.9,0.3-1.2,1.2-1.2c3.2,0.1,6.4,0.1,9.6,0c2-0.1,3.3,0.7,4.3,2.6c7.2,13.4,14.4,26.8,21.6,40.2C295.5-72.3,296.3-70.1,297.2-68
		z"/>
	<path id="XMLID_104_" class="st0" d="M127.3-80.7c0-11.7,0-23.4,0-35.2c0-1.1,0.3-1.3,1.3-1.3c3.7,0.1,7.4,0.1,11,0
		c1.2,0,1.4,0.4,1.4,1.4c0,9.6,0,19.1,0,28.7c0,1.1,0.3,1.4,1.4,1.4c10.5,0,21,0,31.6,0c1.2,0,1.4-0.4,1.4-1.4c0-9.6,0-19.1,0-28.7
		c0-1.1,0.3-1.4,1.4-1.4c3.6,0.1,7.1,0,10.7,0c1.6,0,1.6,0,1.6,1.5c0,17.9,0,35.8,0,53.8c0,5.4,0,10.9,0,16.3c0,1.1-0.2,1.5-1.4,1.5
		c-3.6-0.1-7.2-0.1-10.8,0c-1.1,0-1.5-0.2-1.5-1.4c0.1-9.7,0-19.4,0.1-29.2c0-1.1-0.2-1.4-1.4-1.4c-10.5,0-21,0-31.6,0
		c-1.1,0-1.4,0.2-1.4,1.4c0,9.8,0,19.5,0.1,29.3c0,1-0.2,1.4-1.3,1.3c-3.6-0.1-7.3-0.1-10.9,0c-1.2,0-1.5-0.2-1.5-1.5
		C127.3-57.2,127.3-69,127.3-80.7z"/>
	<path id="XMLID_103_" class="st0" d="M377.6-80.6c0-11.8,0-23.5,0-35.3c0-1.1,0.3-1.3,1.3-1.3c3.7,0.1,7.4,0.1,11,0
		c1.2,0,1.4,0.4,1.4,1.4c0,9.6,0,19.1,0,28.7c0,1.1,0.3,1.4,1.4,1.4c10.5,0,21,0,31.6,0c1.2,0,1.4-0.4,1.4-1.4c0-9.6,0-19.1,0-28.7
		c0-1.1,0.3-1.4,1.4-1.4c3.6,0.1,7.1,0,10.7,0c1.6,0,1.6,0,1.6,1.5c0,17.8,0,35.7,0,53.5c0,5.5,0,11,0,16.6c0,1.1-0.2,1.5-1.4,1.5
		c-3.6-0.1-7.2-0.1-10.8,0c-1.1,0-1.5-0.2-1.5-1.4c0.1-9.7,0-19.4,0.1-29.2c0-1.1-0.2-1.4-1.4-1.4c-10.5,0-21,0-31.6,0
		c-1.1,0-1.4,0.2-1.4,1.3c0,9.8,0,19.5,0.1,29.3c0,1-0.2,1.4-1.3,1.3c-3.6-0.1-7.3-0.1-10.9,0c-1.2,0-1.5-0.2-1.5-1.5
		C377.6-57.2,377.6-68.9,377.6-80.6z"/>
	<path id="XMLID_102_" class="st0" d="M32.6-118.1c7.4,0,14.1,1.9,19.9,6.6c0.9,0.7,1.1,1.3,0.5,2.3c-1,1.6-1.8,3.3-2.7,5
		c-1.3,2.4-3.1,2.9-5.5,1.4c-2.7-1.6-5.3-3.2-8.5-3.9c-3.4-0.7-6.8-0.6-10.1,0.8c-3.9,1.7-6,5.8-4.9,10c0.5,2,2,3.3,3.7,4.4
		c2.8,1.8,5.9,2.7,8.9,3.7c3.6,1.2,7.2,2.4,10.6,4.1C52-80,55.5-73.8,55-65.7c-0.4,6.2-2.5,11.7-7.2,16c-3.8,3.5-8.4,5.4-13.4,6.1
		c-9.5,1.2-18.2-1-25.9-6.7c-3.2-2.3-3.2-2.4-1.1-5.7c0.6-1,1.2-2.1,1.9-3.1c1.4-2.2,3.4-2.7,5.6-1.3c1.4,0.8,2.7,1.8,4,2.6
		c4.9,3.1,10.2,4.1,15.8,2.7c6.7-1.7,8.2-7.7,7.1-12.4c-0.5-2.3-2.2-3.7-4.1-4.9c-2-1.2-4.2-2-6.4-2.6c-4.3-1.3-8.6-2.5-12.6-4.5
		C12.3-82.7,9.1-88,8.6-95c-0.9-12.5,7.9-21.1,19.2-22.8C29.3-118,31-118.1,32.6-118.1z"/>
	<path id="XMLID_99_" class="st0" d="M474.8-43.3c-6.7,0-12.7-1.7-17.7-6.3c-4-3.7-6.3-8.3-7.3-13.6c-1.2-6.5-1-12.8,1.6-18.9
		c3.4-8.2,9.8-12.8,18.5-14.2c4.6-0.8,9.2-0.5,13.7,0.9c7.2,2.3,12.3,6.8,14.8,13.9c3,8.2,2.9,16.4-0.6,24.4
		c-3.5,8-9.9,12.2-18.4,13.6C477.9-43.4,476.4-43.3,474.8-43.3z M462.1-69.9c-0.1,2,0.1,4.1,0.5,6.2c1.2,6.3,4.5,9.9,10.3,10.6
		c6.3,0.8,11.4-1.4,13.4-8.2c1.7-5.8,1.7-11.6,0-17.4c-1.7-5.6-5.1-8.2-11-8.5c-6.2-0.3-10.6,2.8-12.3,8.8
		C462.3-75.6,462-72.8,462.1-69.9z"/>
	<path id="XMLID_98_" class="st0" d="M82.2-74.9c0-9.9,0-19.8,0-29.8c0-1.1-0.2-1.3-1.3-1.3c-6.5,0.1-13,0-19.6,0.1
		c-1.1,0-1.2-0.3-1.2-1.3c0.1-2.8,0.1-5.7,0-8.5c0-1.1,0.3-1.4,1.4-1.4c16.2,0,32.5,0,48.7,0c2.2,0,4.3,0,6.5,0
		c0.9,0,1.1,0.3,1.1,1.2c0,3-0.1,5.9,0,8.9c0,1-0.4,1.2-1.2,1.2c-6.4,0-12.9,0-19.3,0c-1.1,0-1.5,0.2-1.5,1.4c0,19.7,0,39.4,0.1,59
		c0,1.2-0.3,1.5-1.5,1.5c-3.6-0.1-7.2-0.1-10.8,0c-1.1,0-1.4-0.2-1.4-1.3C82.2-55.2,82.2-65.1,82.2-74.9z"/>
	<path id="XMLID_95_" class="st0" d="M572.1-68.4c-5.1,0-10.2,0-15.4,0c-0.5,0-1.1-0.3-1,0.7c0.5,4,1.4,7.8,4.3,10.8
		c3.1,3.3,7.1,4,11.4,3.8c3.4-0.2,6.4-1.6,9.3-3.2c0.7-0.4,1.4-0.9,2.3-1.1c1.6-0.5,2.7-0.2,3.7,1.2c0.9,1.2,1.8,2.4,2.8,3.6
		c0.6,0.7,0.5,1.1-0.1,1.7c-3.7,3.9-8.3,6-13.5,7c-5.5,1-11.1,1.1-16.4-0.8c-8.6-3.1-13.5-9.5-15.4-18.1c-1.5-6.6-1.4-13.1,1.4-19.4
		c3.9-8.9,10.9-13.6,20.6-14.3c5.3-0.4,10.4,0.4,14.9,3.3c5.4,3.5,8.3,8.6,9.3,14.8c0.4,2.4,0.7,4.8,0.3,7.3c-0.3,2.2-1,2.8-3.2,2.8
		C582.3-68.3,577.2-68.4,572.1-68.4z M567.7-76c3.6,0,7.2,0,10.8,0c0.4,0,1,0.2,0.9-0.6c-0.3-6-3.5-10.7-10.1-11.1
		c-3.8-0.3-7.3,0.6-10,3.6c-1.8,2-2.7,4.5-3.3,7.1c-0.2,0.9,0,1,0.8,1C560.5-76,564.1-76,567.7-76z"/>
	<path id="XMLID_94_" class="st0" d="M205.3-80.6c0-11.7,0-23.4,0-35.1c0-1.1,0.2-1.4,1.4-1.4c3.7,0.1,7.4,0.1,11,0
		c1.1,0,1.3,0.3,1.3,1.3c0,19.6,0,39.3,0,58.9c0,1.8-0.2,1.6,1.6,1.6c8.8,0,17.5,0,26.3,0c1,0,1.3,0.2,1.3,1.2c-0.1,3,0,6,0,9
		c0,0.7-0.1,1.1-1,1.1c-13.6,0-27.3,0-40.9,0c-1,0-1-0.5-1-1.2C205.3-57,205.3-68.8,205.3-80.6z"/>
	<path id="XMLID_93_" class="st0" d="M512.1-71.3c0-4.7,0-9.4,0-14.2c0-0.9-0.3-1.2-1.1-1.1c-1.4,0.1-2.7,0-4.1,0
		c-1.6,0-2.5-0.9-2.5-2.4c0-1.5,0-3,0-4.4c0-0.5,0.1-0.8,0.7-0.8c2.2-0.3,4.3-0.8,6.5-1c1-0.1,1.2-0.6,1.4-1.4
		c0.7-4,1.5-8.1,2.2-12.1c0.4-2.3,1.2-2.9,3.4-2.9c1.6,0,3.2,0,4.8,0c0.9,0,1.2,0.2,1.2,1.2c-0.1,4.6,0,9.2,0,13.8
		c0,1.1,0.3,1.4,1.4,1.4c3.8-0.1,7.5,0,11.3,0c0.9,0,1.3,0.1,1.2,1.2c-0.1,2.2-0.1,4.5,0,6.7c0,0.8-0.2,1.1-1.1,1.1
		c-3.9,0-7.8,0-11.8,0c-0.8,0-1.1,0.2-1.1,1.1c0,9,0,18,0,27c0,0.6,0.1,1.2,0.2,1.8c0.6,2.7,3.1,4,6,3.2c0.9-0.3,1.7-0.7,2.5-1.2
		c0.9-0.6,1.8-0.5,2.4,0.4c1.3,2,2.5,4,3.8,6c0.4,0.6-0.1,0.8-0.4,1c-3.2,2.4-6.7,3.6-10.6,3.9c-2.2,0.2-4.5,0.2-6.7-0.3
		c-5.4-1.3-9-5.6-9.5-11.2c-0.1-0.7-0.2-1.4-0.2-2C512.1-61.7,512.1-66.5,512.1-71.3z"/>
	<path id="XMLID_92_" class="st0" d="M612.7-81.5c0,12,0,24.1,0,36.1c0,1-0.2,1.4-1.3,1.4c-3.3-0.1-6.6-0.1-10,0
		c-1.2,0-1.4-0.4-1.4-1.5c0-17.4,0-34.9,0-52.3c0-6.7,0-13.4,0-20c0-1,0.1-1.4,1.3-1.4c3.3,0.1,6.6,0.1,10,0c1.2,0,1.4,0.4,1.4,1.5
		C612.7-105.7,612.7-93.6,612.7-81.5z"/>
	<path id="XMLID_91_" class="st1" d="M481.5-22c0.3-1.6,0.6-3.5,0.9-5.3c0.1-0.7,0-1.2-0.5-1.7c-1.3-1.2-2.6-2.6-4-3.8
		c-0.3-0.3-0.7-0.6-0.5-1.1c0.2-0.4,0.6-0.4,1-0.5c1.7-0.3,3.5-0.6,5.2-0.8c0.9-0.1,1.4-0.4,1.8-1.3c0.7-1.6,1.5-3.2,2.3-4.7
		c0.2-0.3,0.3-0.8,0.8-0.8c0.6,0,0.7,0.5,0.9,0.8c0.8,1.6,1.7,3.3,2.4,4.9c0.3,0.6,0.6,0.9,1.3,1c1.8,0.2,3.5,0.5,5.3,0.8
		c0.4,0.1,0.8,0,1,0.5c0.2,0.5-0.2,0.8-0.5,1.1c-1.3,1.3-2.5,2.6-3.9,3.8c-0.7,0.6-0.7,1.1-0.6,1.9c0.3,1.6,0.6,3.3,0.9,5
		c0.1,0.5,0.3,1.1-0.3,1.4c-0.5,0.3-0.9-0.1-1.3-0.3c-1.5-0.8-3-1.5-4.4-2.4c-0.7-0.4-1.2-0.4-1.9,0c-1.6,0.9-3.2,1.8-4.9,2.6
		C481.8-20.5,481.4-20.9,481.5-22z"/>
	<path id="XMLID_90_" class="st1" d="M566.2-22.1c0.3-1.5,0.5-3.3,0.9-5c0.2-0.8,0.1-1.4-0.6-2c-1.4-1.2-2.6-2.5-3.9-3.8
		c-0.3-0.3-0.6-0.6-0.5-1c0.1-0.5,0.6-0.5,1-0.5c1.9-0.3,3.7-0.6,5.6-0.8c0.7-0.1,1.1-0.4,1.4-1.1c0.8-1.7,1.6-3.3,2.4-4.9
		c0.2-0.4,0.3-0.8,0.8-0.8c0.5,0,0.6,0.4,0.8,0.8c0.8,1.7,1.7,3.3,2.5,5c0.3,0.5,0.6,0.8,1.2,0.9c1.8,0.2,3.6,0.6,5.4,0.8
		c0.4,0.1,0.8,0.1,1,0.5c0.1,0.5-0.2,0.7-0.5,1c-1.3,1.3-2.5,2.5-3.9,3.8c-0.6,0.6-0.8,1.1-0.6,2c0.4,1.7,0.6,3.4,0.9,5.1
		c0.1,0.4,0.2,0.9-0.2,1.2c-0.4,0.3-0.8,0-1.2-0.2c-1.6-0.8-3.1-1.6-4.6-2.5c-0.6-0.4-1.1-0.4-1.8,0c-1.6,0.9-3.2,1.7-4.8,2.5
		C566.6-20.5,566.2-20.7,566.2-22.1z"/>
	<path id="XMLID_89_" class="st1" d="M509.6-21.7c0.3-1.9,0.6-3.9,1-5.8c0.1-0.7-0.1-1.1-0.5-1.6c-1.3-1.3-2.6-2.6-4-3.8
		c-0.3-0.3-0.7-0.6-0.6-1c0.1-0.5,0.6-0.5,1.1-0.6c1.9-0.3,3.7-0.6,5.6-0.8c0.7-0.1,1-0.4,1.3-1c0.8-1.7,1.6-3.3,2.5-4.9
		c0.2-0.4,0.4-0.9,0.9-0.8c0.5,0,0.6,0.5,0.8,0.8c0.8,1.6,1.6,3.1,2.3,4.7c0.4,0.8,0.9,1.2,1.8,1.3c1.7,0.2,3.4,0.5,5.1,0.7
		c0.4,0.1,0.8,0.1,0.9,0.6c0.1,0.4-0.2,0.7-0.5,0.9c-1.4,1.4-2.8,2.8-4.2,4.1c-0.4,0.4-0.5,0.7-0.4,1.2c0.4,1.8,0.6,3.5,0.9,5.3
		c0.1,0.5,0.3,1.1-0.2,1.4c-0.5,0.4-0.9,0-1.3-0.2c-1.6-0.8-3.1-1.6-4.6-2.5c-0.6-0.3-1-0.3-1.5,0c-1.6,0.9-3.3,1.8-5,2.6
		C510.1-20.5,509.6-20.8,509.6-21.7z"/>
	<path id="XMLID_88_" class="st1" d="M538-21.8c0.3-1.9,0.6-3.9,1-5.9c0.1-0.5,0-0.8-0.4-1.1c-1.3-1.3-2.6-2.6-3.9-3.9
		c-0.3-0.3-1-0.6-0.7-1.3c0.2-0.5,0.8-0.5,1.3-0.5c1.8-0.3,3.6-0.6,5.4-0.8c0.6-0.1,0.9-0.3,1.1-0.8c0.8-1.7,1.7-3.4,2.5-5
		c0.2-0.4,0.3-0.9,0.9-0.9c0.5,0,0.6,0.5,0.8,0.8c0.8,1.6,1.7,3.3,2.4,4.9c0.3,0.7,0.7,0.9,1.4,1c1.8,0.2,3.6,0.5,5.3,0.8
		c0.4,0.1,0.8,0.1,1,0.6c0.1,0.5-0.2,0.7-0.5,1c-1.3,1.3-2.7,2.6-4,3.9c-0.4,0.4-0.6,0.8-0.5,1.4c0.4,1.8,0.6,3.5,0.9,5.3
		c0.1,0.5,0.2,1-0.2,1.3c-0.5,0.4-0.9,0-1.3-0.2c-1.5-0.8-3-1.5-4.4-2.4c-0.8-0.4-1.3-0.4-2.1,0c-1.5,0.9-3.1,1.7-4.7,2.5
		C538.4-20.6,538-20.8,538-21.8z"/>
	<path id="XMLID_87_" class="st1" d="M594.4-21.8c0.3-1.9,0.6-3.8,1-5.7c0.1-0.6,0-1-0.5-1.5c-1.4-1.3-2.7-2.7-4.1-4
		c-0.2-0.2-0.6-0.5-0.5-0.9c0.1-0.4,0.6-0.5,1-0.6c1.9-0.3,3.7-0.6,5.6-0.8c0.7-0.1,1.1-0.4,1.4-1c0.7-1.6,1.5-3.2,2.3-4.7
		c0.2-0.4,0.3-1,0.9-1c0.7,0,0.7,0.6,1,1.1c0.8,1.6,1.6,3.1,2.3,4.7c0.3,0.6,0.7,0.9,1.3,1c1.8,0.2,3.6,0.5,5.3,0.8
		c0.4,0.1,0.8,0.1,1,0.5c0.2,0.5-0.2,0.8-0.5,1.1c-1.3,1.3-2.6,2.5-3.9,3.7c-0.5,0.5-0.8,1-0.6,1.8c0.4,1.7,0.6,3.5,0.9,5.2
		c0.1,0.5,0.2,1-0.3,1.3c-0.4,0.3-0.8,0-1.2-0.2c-1.6-0.8-3.2-1.7-4.7-2.5c-0.6-0.3-1-0.3-1.5,0c-1.6,0.9-3.3,1.8-5,2.6
		C594.8-20.5,594.4-20.8,594.4-21.8z"/>
</g>
</svg>
