<?xml version="1.0" encoding="utf-8"?>
<!-- Generator: Adobe Illustrator 16.0.0, SVG Export Plug-In . SVG Version: 6.00 Build 0)  -->
<!DOCTYPE svg PUBLIC "-//W3C//DTD SVG 1.1//EN" "http://www.w3.org/Graphics/SVG/1.1/DTD/svg11.dtd">
<svg version="1.1" id="Layer_1" xmlns="http://www.w3.org/2000/svg" xmlns:xlink="http://www.w3.org/1999/xlink" x="0px" y="0px"
	 width="41px" height="64px" viewBox="0 0 41 64" enable-background="new 0 0 41 64" xml:space="preserve">
<path fill="#FF704C" d="M30,46.535c-4.75,8.816-9.5,15.964-9.5,15.964s-4.75-7.147-9.5-15.964S1.5,27.234,1.5,20.561
	c0-5.264,2.127-10.029,5.565-13.479c3.438-3.449,8.189-5.583,13.435-5.583s9.996,2.134,13.436,5.583
	c3.438,3.45,5.564,8.215,5.564,13.479C39.5,27.234,34.75,37.719,30,46.535z M31.242,9.78c-2.75-2.758-6.549-4.464-10.742-4.464
	c-4.198,0-7.997,1.706-10.746,4.464c-2.749,2.758-4.449,6.569-4.449,10.781c0,3.908,1.465,7.473,3.877,10.169
	c2.412,2.697,5.77,4.527,9.556,4.965c0.287,0.027,0.572,0.055,0.863,0.074c0.291,0.021,0.588,0.035,0.899,0.035
	s0.607-0.014,0.898-0.035c0.291-0.02,0.576-0.047,0.863-0.074c3.781-0.438,7.139-2.269,9.553-4.965
	c2.412-2.696,3.881-6.261,3.881-10.169C35.695,16.349,33.993,12.538,31.242,9.78z M20.485,27.434c-3.83,0-6.937-3.117-6.937-6.959
	c0-3.841,3.107-6.958,6.937-6.958c3.83,0,6.936,3.117,6.936,6.958C27.421,24.317,24.314,27.434,20.485,27.434z"/>
</svg>
