<?xml version="1.0" encoding="utf-8"?>
<!-- Generator: Adobe Illustrator 19.0.0, SVG Export Plug-In . SVG Version: 6.00 Build 0)  -->
<svg version="1.1" id="Layer_1" xmlns="http://www.w3.org/2000/svg" xmlns:xlink="http://www.w3.org/1999/xlink" x="0px" y="0px"
	 viewBox="-277 394 56 5" style="enable-background:new -277 394 56 5;" xml:space="preserve">
<style type="text/css">
	.st0{fill:#FF704C;}
</style>
<path class="st0" d="M-228.6,399c-2,0-3-1-4-1.9c-0.8-0.8-1.5-1.4-2.8-1.4c-1.3,0-2,0.6-2.8,1.4c-1,0.9-2,1.9-4,1.9s-3-1-3.9-1.9
	c-0.9-0.8-1.5-1.4-2.9-1.4s-2,0.6-2.8,1.4c-1,0.9-2,1.9-4,1.9c-2,0-3-1-3.9-1.9c-0.8-0.8-1.5-1.4-2.8-1.4c-1.4,0-2,0.6-2.8,1.4
	c-1,0.9-2.1,1.9-4.1,1.9s-3-1-3.9-1.9c-0.9-0.8-1.5-1.4-2.9-1.4c-0.4,0-0.8-0.4-0.8-0.8s0.4-0.9,0.8-0.9c2,0,3,1,3.9,1.9
	c0.8,0.8,1.5,1.4,2.8,1.4s2-0.6,2.8-1.4c1.1-0.9,2.1-1.9,4.1-1.9s3,1,3.9,1.9c0.8,0.8,1.5,1.4,2.8,1.4c1.4,0,2-0.6,2.8-1.4
	c1.1-0.9,2.1-1.9,4.1-1.9s3,1,3.9,1.9c0.8,0.8,1.5,1.4,2.8,1.4c1.4,0,2-0.6,2.8-1.4c1-0.9,2.1-1.9,4.1-1.9s3,1,4,1.9
	c0.8,0.8,1.5,1.4,2.8,1.4c1.4,0,2-0.6,2.8-1.4c0.9-0.9,2-1.9,4-1.9c0.4,0,0.8,0.4,0.8,0.9s-0.4,0.9-0.8,0.9c-1.4,0-2,0.6-2.8,1.4
	C-225.6,398-226.6,399-228.6,399z"/>
</svg>
